<?xml version="1.0" encoding="UTF-8" standalone="no"?>
<svg xmlns:rdf="http://www.w3.org/1999/02/22-rdf-syntax-ns#" xmlns="http://www.w3.org/2000/svg" xml:space="preserve" height="206.1" viewBox="0 0 206.09525 206.095" width="206.1" version="1.1" xmlns:cc="http://creativecommons.org/ns#" xmlns:dc="http://purl.org/dc/elements/1.1/"><g transform="matrix(1.25 0 0 -1.25 -281.45 600.05)"><g><ellipse rx="80.688" ry="80.838" transform="scale(1,-1)" cy="-397.5" cx="307.95" fill="#005ea6"/><circle transform="scale(1,-1)" cy="-397.53" cx="307.83" r="76.976" fill="#de5b9e"/><ellipse rx="70.244" ry="69.794" transform="scale(1,-1)" cy="-397.25" cx="307.7" fill="#fff"/><path d="m112.04 38.465l-1.66 75.005c3.2 0.52 6.9 0.66 10.56 1.1 2.72-25.201 4.97-50.088 7.9-74.89l-16.8-1.215zm-40.819 0.455c-0.754 0.005-1.509 0.022-2.268 0.049l0.731 16.195c3.016-0.106 5.7 0.246 8 0.732 4.157 0.879 8.598 2.737 9.123 7.418 0.809 7.234-5.699 12.276-13.827 12.541l0.469 8.938c5.275 0.287 11.148 1.829 13.865 5.602 0.898 1.247 1.539 2.96 1.549 5.084 0.017 3.51-1.818 6.931-4.324 9.061-3.139 2.66-8.241 3.75-13.225 3.47l-0.056 5.9c13.889 0.31 27.027-3.21 31.792-12.72 1.15-2.289 2.24-5.805 2.21-8.639-0.07-4.882-2.25-8.097-4.5-10.155-2.791-2.56-6.45-4.172-10.102-5.283 7.078-3.267 13.652-8.86 12.512-18.273-0.49-4.007-2.19-7.652-4.191-10.192-5.862-7.449-16.457-9.812-27.758-9.728z" fill-rule="evenodd" transform="matrix(.8 0 0 -.8 225.16 480.04)" fill="#de5b9e"/><path d="m66.213 41.939l-19.162 3.11c4.336 23.199 8.932 45.342 13.267 68.171 2.692-0.14 5.294-0.17 8.02-0.35-0.83-23.322-1.23-48.719-2.125-70.931zm64.507 0.291l-1.61 17.315c4.15 0.921 8.57 2.556 10.59 6.072 1.88 3.266 1.12 7.837-0.68 10.197-2.47 3.242-7.21 5.16-12.06 6.403-0.41 2.984-0.7 6.059-1.15 9.013l13.96 22.27 8.96-1.64-8.64-23.128c8.9-3.61 15.65-9.284 17.89-17.74 2.32-8.785-0.88-17.459-6.31-22.025-5.21-4.375-12.88-6.353-20.95-6.737zm-22.9 75.05c-0.32 8.41-1 16.54-1.4 24.89l8.97-8.67 4.76 6.67 3.97-2.71-5.32-7.25 4.48-4.33c-1.12-0.93-2.23-1.86-3.28-2.88l-8.3 8.06c0.3-4.53 0.75-8.93 0.91-13.56l-4.79-0.22zm20.53 2.3c-1.57 0.08-2.79 1.33-2.72 2.81 0.07 1.47 1.4 2.61 2.97 2.54 1.58-0.08 2.79-1.34 2.72-2.81-0.06-1.48-1.4-2.61-2.97-2.54zm-68.719 0.17l-4.68 0.64 3.106 22.97 4.679-0.63-0.25-1.85c1.392 0.59 2.959 0.82 4.573 0.61 4.713-0.64 8.046-4.86 7.431-9.42-0.615-4.55-4.949-7.73-9.662-7.1-1.614 0.22-3.06 0.87-4.248 1.8l-0.949-7.02zm44.159 2.99c-0.09 0.01-0.19 0.02-0.28 0.04-4.017 1.32-8.121 3.15-6.903 7.72 0.296 1.1 1.099 2.58 1.67 3.81 0.639 1.38 1.685 2.74 1.672 3.82-0.021 1.78-2.301 2.66-3.928 2.99 0.546 0.89 0.863 2.09 1.415 2.98 3.134-0.64 5.694-1.98 6.834-3.95 1.42-2.48-0.15-4.69-1.25-7.05-0.48-1.04-1.72-3.32-1.73-4.25-0.01-1.72 2.16-2.74 3.79-2.97-0.04-0.91-0.92-2.11-1.29-3.14zm31.55 0.5l-0.86 18.39 4.82 0.2 0.29-8.02 10.95 11.13 0.86-18.39-4.82-0.2-0.29 8.01-10.95-11.12zm-45.965 3.05l-0.006 1.94c-1.233-0.87-2.71-1.44-4.334-1.58-4.74-0.4-8.908 3-9.293 7.58-0.383 4.58 3.159 8.63 7.899 9.03 1.624 0.13 3.175-0.18 4.535-0.83l-0.155 1.85 4.706 0.39 1.353-17.98-4.705-0.4zm41.725 0l-4.82 0.16 0.5 15.42 4.83-0.16-0.51-15.42zm-64.834 3.08c1.922 0.11 3.543 1.46 3.793 3.3 0.284 2.11-1.33 4.08-3.6 4.38-2.27 0.31-4.348-1.16-4.633-3.26-0.285-2.11 1.33-4.08 3.6-4.39 0.283-0.03 0.565-0.04 0.84-0.03zm18.396 1.74c2.282 0.19 3.994 2.07 3.817 4.19-0.179 2.12-2.181 3.69-4.463 3.5-2.283-0.19-3.995-2.07-3.817-4.19 0.179-2.12 2.181-3.69 4.463-3.5zm20.128 11.99l-4.26 0.12 0.59 20.92 4.26-0.12-0.05-1.68c1.19 0.66 2.58 1.02 4.05 0.98 4.29-0.12 7.69-3.59 7.57-7.74-0.11-4.14-3.7-7.42-7.99-7.3-1.47 0.04-2.83 0.48-3.99 1.2l-0.18-6.38zm16.87 0c-1.44-0.08-2.67 0.91-2.75 2.22s1.02 2.44 2.45 2.53c1.44 0.09 2.66-0.9 2.75-2.21 0.08-1.31-1.02-2.45-2.45-2.54zm4.77 0.92l-0.39 18.26 4.59 0.19-0.09-7.43 10.31 10.96 0.49-17.6-4.26-0.09-0.28 7.62-10.37-11.91zm-42.502 2.27l-0.565 20.93 4.262 0.11 0.045-1.68c1.156 0.72 2.516 1.16 3.986 1.2 4.293 0.12 7.875-3.16 7.987-7.31 0.111-4.14-3.288-7.61-7.581-7.73-1.47-0.04-2.852 0.33-4.044 0.99l0.171-6.39-4.261-0.12zm-22.467 0.26l-5.326 0.48 1.795 19.5 5.228-0.47-0.724-7.86c-0.451-3.59 0.998-6.7 4.754-6.24l-0.409-4.83c-1.729-0.33-4.454 0.67-5.152 1.46l-0.166-2.04zm89.069 0.12c-3.65 0.61-6.62 2.29-7.25 4.86-0.53 2.2 0.9 4.2 1.69 6.09 0.49 1.18 1.72 3.32 1.74 4.36 0.02 1.86-2.21 2.63-3.77 2.95 0.37 1.13 0.81 2.15 1.28 3.13 3.03-0.48 5.33-1.65 6.45-3.31 1.65-2.45-0.05-5.58-1.09-8.04-0.61-1.45-1.59-3.07-1.56-4.1 0.06-1.81 2.3-2.48 3.79-2.81-0.36-1.14-0.88-2.06-1.28-3.13zm-31.55 1.79l-0.85 13.82 4.33 0.27 0.85-13.82-4.33-0.27zm37.53 1.56c-0.45 0.03-0.9 0.14-1.33 0.34-0.59 0.27-1.06 0.67-1.42 1.22s-0.57 1.14-0.61 1.76 0.07 1.22 0.35 1.81c0.27 0.58 0.68 1.05 1.22 1.41 0.54 0.35 1.13 0.55 1.75 0.6 0.62 0.04 1.22-0.08 1.81-0.35 0.58-0.28 1.05-0.68 1.41-1.23 0.35-0.54 0.55-1.12 0.59-1.74s-0.07-1.23-0.35-1.82c-0.28-0.6-0.7-1.07-1.24-1.41-0.54-0.35-1.11-0.54-1.72-0.58-0.16-0.02-0.31-0.02-0.46-0.01zm-82.67 0.5c-0.268 0.01-0.539 0.04-0.811 0.07-4.344 0.59-7.427 4.41-6.873 8.52 0.556 4.1 4.542 6.97 8.887 6.38s7.428-4.41 6.873-8.51c-0.521-3.85-4.056-6.61-8.076-6.46zm83.08 0.22c0.49 0.03 0.95 0.19 1.39 0.46 0.43 0.28 0.76 0.65 0.99 1.13s0.32 0.96 0.29 1.47c-0.04 0.49-0.2 0.96-0.48 1.4-0.29 0.43-0.67 0.76-1.14 0.98s-0.95 0.32-1.45 0.28c-0.5-0.03-0.96-0.19-1.4-0.48-0.43-0.28-0.76-0.66-0.98-1.13s-0.31-0.95-0.28-1.45c0.04-0.51 0.2-0.98 0.49-1.42s0.67-0.76 1.14-0.98c0.46-0.21 0.94-0.3 1.43-0.26zm-1.68 0.88l-0.27 3.76 0.77 0.06 0.11-1.55 0.2 0.02c0.21 0.01 0.39 0.08 0.52 0.2 0.13 0.11 0.29 0.38 0.47 0.81l0.27 0.63 0.96 0.07-0.39-0.8c-0.14-0.28-0.23-0.43-0.25-0.47-0.1-0.15-0.18-0.26-0.24-0.31-0.05-0.06-0.14-0.11-0.25-0.16 0.32-0.02 0.58-0.13 0.77-0.31s0.3-0.4 0.32-0.68c0.01-0.19-0.02-0.38-0.11-0.55-0.08-0.16-0.19-0.29-0.33-0.38-0.13-0.09-0.32-0.15-0.58-0.19-0.08-0.02-0.49-0.05-1.21-0.1l-0.76-0.05zm0.72 0.65l0.32 0.02c0.43 0.03 0.7 0.07 0.81 0.11 0.11 0.05 0.19 0.11 0.25 0.2 0.05 0.08 0.08 0.18 0.07 0.28-0.01 0.11-0.05 0.21-0.12 0.29-0.06 0.08-0.15 0.13-0.26 0.16-0.11 0.02-0.38 0.02-0.83-0.01l-0.31-0.02 0.07-1.03zm-46.89 0.05c2.07-0.06 3.79 1.45 3.85 3.38 0.05 1.92-1.59 3.52-3.65 3.58-2.07 0.06-3.8-1.45-3.85-3.37-0.06-1.92 1.58-3.53 3.65-3.59zm-34.701 2.1c1.872 0.09 3.444 1.35 3.678 3.08 0.126 0.93-0.153 1.86-0.785 2.63-0.669 0.82-1.644 1.34-2.742 1.49-2.212 0.3-4.227-1.06-4.495-3.04-0.266-1.97 1.316-3.82 3.528-4.12 0.276-0.04 0.549-0.05 0.816-0.04zm17.584 1.43c2.067 0.06 3.706 1.66 3.654 3.58-0.052 1.93-1.775 3.44-3.841 3.39-2.068-0.06-3.707-1.67-3.655-3.59s1.775-3.44 3.842-3.38z" fill-rule="evenodd" transform="matrix(.8 0 0 -.8 225.16 480.04)" fill="#005ea6"/></g></g></svg>
