<svg xmlns="http://www.w3.org/2000/svg" width="341" height="265" viewBox="0 0 341 265">
    <defs>
        <clipPath id="clip-path">
            <path id="사각형_3513" data-name="사각형 3513" class="cls-1" d="M0 0h152.298v182.104H0z"/>
        </clipPath>
        <clipPath id="clip-path-2">
            <path id="패스_14427" data-name="패스 14427" class="cls-1" d="M.122 91.055c0 50.14 34.107 90.933 76.03 90.933s76.03-40.793 76.03-90.933S118.074.122 76.152.122.122 40.915.122 91.055" transform="translate(-.122 -.122)"/>
        </clipPath>
        <style>
            .cls-1{fill:none}.cls-3{clip-path:url(#clip-path)}.cls-4,.cls-7{fill:#003b87}.cls-6{fill:#fff}.cls-7{fill-rule:evenodd}
        </style>
    </defs>
    <g id="로고_02" transform="translate(-17 -1642)">
        <path id="사각형_3512" data-name="사각형 3512" transform="translate(17 1642)" style="fill:#ff592e" d="M0 0h341v265H0z"/>
        <g id="그룹_2293" data-name="그룹 2293" transform="translate(111 1683)">
            <g id="그룹_2288" data-name="그룹 2288">
                <g id="그룹_2287" data-name="그룹 2287" class="cls-3">
                    <path id="패스_14411" data-name="패스 14411" class="cls-4" d="M76.149 182.1C34.161 182.1 0 141.258 0 91.052S34.161 0 76.149 0 152.3 40.846 152.3 91.052 118.137 182.1 76.149 182.1m0-179.486C35.6 2.618 2.617 42.289 2.617 91.052s32.983 88.434 73.532 88.434 73.532-39.671 73.532-88.434S116.694 2.618 76.149 2.618"/>
                </g>
            </g>
            <g id="그룹_2290" data-name="그룹 2290" transform="translate(.119 .119)">
                <g id="그룹_2289" data-name="그룹 2289" style="clip-path:url(#clip-path-2)">
                    <path id="패스_14412" data-name="패스 14412" class="cls-6" d="m107.259 154.543-.406-.587a95.209 95.209 0 0 1-5.575-9.714c-3.105-5.931-6.316-12.064-11.364-16.511-.023-.021-.056-.045-.085-.068v-.078l-.445-.223c-.453-.28-1.173-.681-2.329-1.317-1-.546-2.545-1.4-3.229-1.851 4.721-9.8 14.2-33.087 15.105-39.405 1.63-11.413-3.154-19.75-8.29-22.667-7.329-4.161-14.671 1.288-15 1.538a21.553 21.553 0 0 0-6.293 9.7c-1.708 5.366-2.213 19.318-1.81 26.566.175 3.152 1.02 4.915 2.582 5.388 1.926.583 3.959-1.26 4.81-2.364a54.714 54.714 0 0 0 2.866-3.108 107.035 107.035 0 0 1-4.181 9.518c-1.885 3.772-6.28 11.626-7.875 14.461a.949.949 0 0 0-.454-.035c-.719.117-1.464.216-2.222.317a36.53 36.53 0 0 0-5.467 1.026l-.1.014v.016a12.557 12.557 0 0 0-3.7 1.725 29.728 29.728 0 0 0-4.959 4.341c-1.063 1.181-2.374 2.381-3.761 3.651-3.417 3.124-6.948 6.353-7.877 10.214-1.367 5.694 2.585 8.123 5.2 9.729l.123.076c.255.156.513.321.777.488 1.6 1.023 3.425 2.181 5.467 2.3a4.425 4.425 0 0 0 3.011-.632 3.73 3.73 0 0 0 .924-.991 2.556 2.556 0 0 1 .457-.541 1.954 1.954 0 0 1 .631-.233 4.95 4.95 0 0 0 .824-.274 4.168 4.168 0 0 0 1.809-1.568 5.513 5.513 0 0 0 .726-2.023 4.326 4.326 0 0 0 .029-1.03c-.023-.383-.025-.491.1-.663 0 0 .011 0 .025-.008a2.94 2.94 0 0 0 .191-.091v9.2l29.742.261a13.315 13.315 0 0 0 2.579 4.057 4.105 4.105 0 0 0 4.422 1.073 4.412 4.412 0 0 1 2.029-.13 3.542 3.542 0 0 1 1.3.74 4.864 4.864 0 0 0 2.9 1.226 4.714 4.714 0 0 0 2.559-.721 2.993 2.993 0 0 1 1.179-.447 6.8 6.8 0 0 1 1.709.522 9.143 9.143 0 0 0 3.028.789 2.387 2.387 0 0 0 1.343-.369 2.576 2.576 0 0 0 1.038-2.2c.122-3.052-2.3-6.543-4.073-9.093" transform="translate(-.974 -1.521)"/>
                    <path id="패스_14413" data-name="패스 14413" class="cls-4" d="m83.8 125.829-9.51 23.911-8.152-24.183-8.152 1.087v.25c0 5.178-.017 10.375-.017 15.536a2.532 2.532 0 0 1 1.186.52 1.023 1.023 0 0 1 .252 1.21 2.712 2.712 0 0 1-.463.584 4 4 0 0 0-.836 1.169 2.859 2.859 0 0 0-.139.424s0 4.81.017 4.8v9.2l30.976.272 1.359-31.52zm-25.02 14.819c-.061-.018-.12-.042-.181-.057.061.015.12.039.181.057m1.58.8a4.63 4.63 0 0 0-.569-.39 4.63 4.63 0 0 1 .569.39m-.881-.54c-.092-.044-.182-.1-.275-.132.094.036.184.088.275.132" transform="translate(-1.461 -3.025)"/>
                    <path id="패스_14414" data-name="패스 14414" class="cls-4" d="M74.865 135.55a1.369 1.369 0 0 1-1.125-.538l-2.43-3.487a.923.923 0 0 1 0-1.077 1.369 1.369 0 0 1 1.125-.538H77.3a1.369 1.369 0 0 1 1.125.538.923.923 0 0 1 0 1.077l-2.43 3.487a1.369 1.369 0 0 1-1.125.538" transform="translate(-1.766 -3.126)"/>
                    <path id="패스_14415" data-name="패스 14415" class="cls-4" d="M73.1 159.246a1.148 1.148 0 0 1-.732-.258.727.727 0 0 1-.272-.6l1.887-25.532a1.049 1.049 0 0 1 2.02.017l1.46 25.56a.727.727 0 0 1-.282.6 1.143 1.143 0 0 1-.735.246z" transform="translate(-1.788 -3.176)"/>
                    <path id="패스_14416" data-name="패스 14416" class="cls-6" d="m73.466 146.867-.386-.734-4.82 2.367.075-1.693 2.692-1.79-6.733-2.745-.633 1.553a3.209 3.209 0 0 0-.8-.488 2.88 2.88 0 0 0-3.81 1.4l-1.163 2.854a2.879 2.879 0 0 0 1.747 3.663 3.218 3.218 0 0 0 .916.214l-.773 1.9 8.121 3.31.178-3.967zM60 150.35a1.85 1.85 0 0 1-1.122-2.355l1.163-2.854a1.851 1.851 0 0 1 2.448-.9 2.045 2.045 0 0 1 .776.562l-2.318 5.687a2.048 2.048 0 0 1-.947-.14" transform="translate(-1.455 -3.412)"/>
                    <path id="패스_14417" data-name="패스 14417" class="cls-6" d="M72.519 148.247s.875-1.9 2.378-1.257c1.766.754 1.29 6.119 1.29 6.119h1.495s.068-6.371-2.649-6.706-2.513 1.844-2.513 1.844" transform="translate(-1.797 -3.507)"/>
                    <path id="선_2587" data-name="선 2587" class="cls-6" transform="translate(67.295 61.158)" d="M0 4.37 29.187 0"/>
                    <path id="패스_14418" data-name="패스 14418" class="cls-4" d="m98.059 61.709-6.316.946-4.614-8.743a.741.741 0 0 0-.765-.387.867.867 0 0 0-.095.021l-9.035 2.584a.744.744 0 0 0-.526.58l-1.531 8.424-6.307.945a.815.815 0 0 0 .119 1.622.856.856 0 0 0 .122-.009l29.189-4.37a.815.815 0 1 0-.241-1.613" transform="translate(-1.697 -1.358)"/>
                    <path id="패스_14419" data-name="패스 14419" class="cls-4" d="M68.6 92.436a2.442 2.442 0 0 1 1.426-1.115 4.131 4.131 0 0 1 4.154.427c1.566 1.174 2.748-.059 4.419.4a5.586 5.586 0 0 1 3.668 2.9c-2.453 3.327-6.1 9.147-10.461 10.42-1.54.262-2.45-1.891-2.807-2.89a21.186 21.186 0 0 1-.735-7.673 5.845 5.845 0 0 1 .336-2.468" transform="translate(-1.698 -2.224)"/>
                    <path id="패스_14420" data-name="패스 14420" class="cls-4" d="M75.019 85.5a1.027 1.027 0 1 1-1.091-.958 1.027 1.027 0 0 1 1.091.958" transform="translate(-1.808 -2.076)"/>
                    <path id="패스_14421" data-name="패스 14421" class="cls-4" d="M82.189 86.993a1.027 1.027 0 1 1-1.091-.958 1.027 1.027 0 0 1 1.091.958" transform="translate(-1.974 -2.11)"/>
                    <path id="패스_14422" data-name="패스 14422" class="cls-4" d="m107.259 154.544-.406-.587a95.311 95.311 0 0 1-5.575-9.714c-3.105-5.931-6.316-12.065-11.363-16.512a22.529 22.529 0 0 0-2.856-1.685c-1-.547-2.545-1.4-3.229-1.851 4.721-9.8 14.2-33.087 15.105-39.406 1.63-11.412-3.154-19.749-8.29-22.666-7.329-4.162-14.671 1.287-15 1.538a21.546 21.546 0 0 0-6.293 9.7c-1.708 5.367-2.213 19.318-1.81 26.566.175 3.153 1.02 4.916 2.582 5.388 1.926.584 3.96-1.259 4.81-2.363a54.714 54.714 0 0 0 2.866-3.108 107.425 107.425 0 0 1-4.18 9.518c-1.886 3.772-6.281 11.625-7.876 14.461a.949.949 0 0 0-.454-.036c-.719.117-1.464.216-2.222.317-3.088.41-6.587.874-9.273 2.781a29.685 29.685 0 0 0-4.959 4.341c-1.063 1.181-2.374 2.381-3.761 3.651-3.415 3.123-6.946 6.353-7.875 10.214-1.367 5.694 2.585 8.123 5.2 9.729l.123.076c.255.156.513.321.777.488 1.6 1.022 3.425 2.18 5.467 2.3a4.419 4.419 0 0 0 3.011-.633 3.715 3.715 0 0 0 .924-.991 2.524 2.524 0 0 1 .457-.54 1.962 1.962 0 0 1 .631-.234 4.952 4.952 0 0 0 .824-.274 4.156 4.156 0 0 0 1.809-1.568 5.5 5.5 0 0 0 .726-2.022 4.327 4.327 0 0 0 .029-1.03c-.023-.384-.025-.492.1-.663a.073.073 0 0 0 .025-.009c.068-.029.139-.062.215-.1a3.253 3.253 0 0 0 1.76-2.747c.021-.247.019-.5.016-.754a2.568 2.568 0 0 1 .091-.962 2.479 2.479 0 0 1 .474-.611 4.3 4.3 0 0 0 .785-1.054 2.932 2.932 0 0 0-.778-3.55c-2.025-1.625-4.569-.947-6.56-.176a21.1 21.1 0 0 0-3.024 1.455.961.961 0 0 0 .973 1.658 18.984 18.984 0 0 1 2.747-1.32c2.27-.882 3.666-.917 4.662-.117a1.023 1.023 0 0 1 .252 1.209 2.719 2.719 0 0 1-.463.584 3.979 3.979 0 0 0-.836 1.17 4.1 4.1 0 0 0-.245 1.741c0 .191.008.382-.008.568a1.331 1.331 0 0 1-.74 1.2l-.093.044a1.757 1.757 0 0 0-.728.532 2.64 2.64 0 0 0-.544 2.016 2.55 2.55 0 0 1-.007.594 3.612 3.612 0 0 1-.459 1.321 2.235 2.235 0 0 1-.98.839 3.253 3.253 0 0 1-.513.163 3.572 3.572 0 0 0-1.277.541 4 4 0 0 0-.887.975 2.32 2.32 0 0 1-.441.519 2.586 2.586 0 0 1-1.815.3c-1.545-.094-3.073-1.066-4.55-2.006-.273-.173-.539-.344-.8-.505l-.123-.076c-2.644-1.625-5.378-3.306-4.337-7.644.789-3.289 4.1-6.318 7.3-9.248 1.423-1.3 2.767-2.534 3.893-3.783a27.758 27.758 0 0 1 4.642-4.06c2.3-1.63 5.408-2.044 8.415-2.442l.9-.121-.574 2.71a.961.961 0 0 0 .928 1.16l18.523.218a.962.962 0 0 0 .97-1.034l-.187-2.468c.575.332 1.311.74 2.254 1.258.963.529 2.282 1.253 2.511 1.443 4.78 4.212 7.907 10.185 10.931 15.961a96.752 96.752 0 0 0 5.694 9.912l.411.594c1.525 2.195 3.828 5.512 3.733 7.92-.019.447-.12.631-.177.668-.379.25-1.841-.311-2.627-.611a6.773 6.773 0 0 0-2.52-.645 4.669 4.669 0 0 0-1.96.669 2.919 2.919 0 0 1-1.571.5 3.045 3.045 0 0 1-1.821-.835 5.222 5.222 0 0 0-2.031-1.082 6.164 6.164 0 0 0-2.884.126c-1.107.247-1.714.382-2.64-.551a15.109 15.109 0 0 1-2.777-4.854l-.284-.671a.961.961 0 1 0-1.766.757l.279.66a16.515 16.515 0 0 0 3.185 5.461 4.1 4.1 0 0 0 4.422 1.074 4.416 4.416 0 0 1 2.03-.13 3.539 3.539 0 0 1 1.3.74 4.864 4.864 0 0 0 2.9 1.226 4.722 4.722 0 0 0 2.559-.722 3.009 3.009 0 0 1 1.179-.447 6.8 6.8 0 0 1 1.709.523 9.166 9.166 0 0 0 3.028.789 2.387 2.387 0 0 0 1.343-.369 2.574 2.574 0 0 0 1.038-2.2c.122-3.052-2.3-6.544-4.073-9.093m-31.92-44.327c2.759-5.516 5.3-11.953 5.931-14.85a56.494 56.494 0 0 0 5.369-9.247.961.961 0 0 0-1.765-.76 55.159 55.159 0 0 1-4.559 7.99.961.961 0 0 0-.819.95 1.857 1.857 0 0 1-.021.259 55.725 55.725 0 0 1-5.946 7.077l-.089.1c-.741.988-2.075 1.935-2.758 1.734-.243-.074-1.048-.555-1.221-3.656-.395-7.1.08-20.715 1.723-25.877a19.991 19.991 0 0 1 5.642-8.763c.065-.05 6.629-4.927 12.869-1.382s8.423 13.113 7.336 20.723c-.908 6.362-11.384 31.838-15.633 40.263l-7.894 2.991-6.169-2.861c1.527-2.715 6.065-10.818 8-14.693m-9.273 16.222 3.124 1.449-3.423-.04zM78.34 128l3.622-1.372.107 1.416z" transform="translate(-.974 -1.521)"/>
                    <path id="패스_14423" data-name="패스 14423" class="cls-4" d="M87.011 162.028H18.1a1.03 1.03 0 0 1 0-2.06h68.911a1.03 1.03 0 0 1 0 2.06" transform="translate(-.514 -3.821)"/>
                    <path id="패스_14424" data-name="패스 14424" class="cls-4" d="M138.495 162.028h-27.683a1.03 1.03 0 1 1 0-2.06h27.683a1.03 1.03 0 0 1 0 2.06" transform="translate(-2.66 -3.821)"/>
                    <path id="패스_14425" data-name="패스 14425" class="cls-6" d="M81.885 152.017a2.88 2.88 0 0 0-1.248.293l-.008-.068H73.02l-1.07 9.645h9.75l-.458-4.133a2.862 2.862 0 0 0 .645.078 2.908 2.908 0 0 0 0-5.815m0 4.755a1.819 1.819 0 0 1-.774-.176l-.347-3.131a1.828 1.828 0 0 1 1.12-.389 1.848 1.848 0 1 1 0 3.7" transform="translate(-1.784 -3.637)"/>
                    <path id="패스_14426" data-name="패스 14426" class="cls-4" d="m80.141 155.453-6.506.065-.363 5.761 7.3-.127z" transform="translate(-1.815 -3.717)"/>
                </g>
            </g>
            <g id="그룹_2292" data-name="그룹 2292">
                <g id="그룹_2291" data-name="그룹 2291" class="cls-3">
                    <path id="패스_14428" data-name="패스 14428" class="cls-7" d="M78.844 175.7c-.023.116.083.158.141.246a1.964 1.964 0 0 0 .142.245.762.762 0 0 0 .234.148c.023.011.061.063.118.074a.514.514 0 0 0 .521-.223c.043-.048.073-.113.117-.172s.111-.1.141-.147.059-.148.095-.221c.017-.033.028-.087.047-.123s.058-.047.07-.073.018-.061.023-.074c.1-.229.256-.547.354-.811.061-.166.076-.35.188-.443.377-.009.54.374.659.688a1.629 1.629 0 0 1 .141.787 2.421 2.421 0 0 1-.094.442 3.962 3.962 0 0 1-.212.566c-.03.069-.039.137-.07.2-.057.108-.146.193-.212.295-.034.053-.063.121-.094.172-.055.087-.095.15-.165.246-.006.008-.044.018-.047.024a.7.7 0 0 1-.189.246c-.058.047-.1.133-.164.2-.022.021-.067.026-.095.049a1.466 1.466 0 0 1-.117.123c-.024.018-.028.006-.047.024a1.415 1.415 0 0 1-.306.148 1.975 1.975 0 0 1-1.106.074c-.038-.01-.081-.038-.118-.05a1.314 1.314 0 0 1-.306-.147c-.037-.021-.08-.026-.117-.049s-.045-.056-.07-.073-.052-.007-.071-.025-.012-.039-.023-.049a1.55 1.55 0 0 1-.164-.148c-.023-.024-.046-.05-.071-.073-.113-.11-.255-.2-.329-.3-.016-.021-.007-.056-.023-.074a2.5 2.5 0 0 1-.235-.393c-.075-.155-.131-.366-.188-.369s-.211.324-.259.418-.087.16-.118.222-.059.166-.094.221-.108.1-.164.172c-.027.034-.043.064-.071.1a1.5 1.5 0 0 1-.446.443 1.871 1.871 0 0 1-.942.049 1.176 1.176 0 0 1-.47-.172 1.512 1.512 0 0 1-.329-.319c-.024-.028-.054-.052-.071-.074-.084-.107-.192-.359-.282-.368-.14-.015-.139.11-.211.172a1.677 1.677 0 0 1-.259.295c-.072.077-.152.162-.235.245a1.326 1.326 0 0 1-.235.123 1.4 1.4 0 0 1-.917.2 1.276 1.276 0 0 1-.306-.1 2.291 2.291 0 0 1-.73-.566c-.027-.033-.048-.092-.07-.123a1.652 1.652 0 0 1-.212-.368c-.02-.045-.023-.1-.047-.147a1.2 1.2 0 0 1-.117-.319 2.842 2.842 0 0 1-.023-1.081c.011-.063.032-.128.047-.2s.007-.145.023-.2c.026-.088.1-.167.141-.271a4.613 4.613 0 0 1 .189-.541c.027-.049.079-.115.117-.2a1.5 1.5 0 0 1 .118-.246c.047-.069.126-.152.188-.245.042-.064.079-.133.118-.2a2.014 2.014 0 0 1 .188-.271c.023-.027.049-.048.071-.074s.023-.072.047-.1.071-.022.094-.05c.051-.06.073-.143.118-.2a2.38 2.38 0 0 1 .517-.418 3.115 3.115 0 0 1 .377-.245c.054-.021.149-.024.235-.05a2.524 2.524 0 0 1 .682-.122.974.974 0 0 1 .518.147c.068.045.09.093.188.1s.173-.066.259-.1a.747.747 0 0 1 .282-.074.719.719 0 0 1 .424.271 1.107 1.107 0 0 1 .07.418 6.447 6.447 0 0 1-.094 1.081 3.692 3.692 0 0 1-.071.442c-.007.029-.037.07-.047.1a3.084 3.084 0 0 0-.094 1.425.552.552 0 0 0 .141.3c.242.011.321-.279.471-.443l.023-.024a.426.426 0 0 1 .095-.123.223.223 0 0 0 .047-.049c.031-.042.039-.1.07-.148s.071-.065.094-.1c.057-.083.109-.172.165-.271.046-.083.09-.177.141-.271s.112-.178.165-.271a1.277 1.277 0 0 0 .142-.27 2.188 2.188 0 0 0-.024-.443 10.548 10.548 0 0 1 .165-2.532c.015-.074.046-.183.07-.27.035-.123.067-.294.118-.443.031-.1.076-.2.117-.32s.075-.231.118-.344c.02-.053.047-.092.07-.148s.025-.121.047-.172c.028-.067.071-.148.117-.245.024-.052.073-.119.118-.2a4.629 4.629 0 0 1 .259-.417c.016-.022.007-.031.023-.05a.989.989 0 0 1 .306-.27.933.933 0 0 0 .094-.025c.051-.023.1-.086.142-.1a2.5 2.5 0 0 1 .423-.05 1.533 1.533 0 0 1 .494.025.8.8 0 0 1 .259.1 1.578 1.578 0 0 1 .47.418c.045.064.073.118.118.2a2.839 2.839 0 0 1 .164.295c.032.076.041.162.071.246 0 .013.044.04.047.049a.822.822 0 0 0 .141.369 6.87 6.87 0 0 1 .165 1.547 4.357 4.357 0 0 1-.212 1.008c-.014.041-.056.079-.07.123l-.047.147c-.068.2-.131.4-.212.59a5.966 5.966 0 0 1-.235.565c-.012.021-.057.029-.07.05s-.011.052-.023.073c-.058.1-.095.2-.165.319-.121.2-.292.455-.446.663-.014.02-.035.033-.048.05s-.008.054-.022.073c-.057.073-.131.128-.189.2s-.1.151-.165.221-.162.1-.188.2m-.235-2.04c.142-.278.236-.546.353-.835 0-.012.043-.034.047-.05s-.01-.068 0-.1.06-.085.07-.123c.029-.1.046-.215.07-.319a4.572 4.572 0 0 0 .165-1.131 1.382 1.382 0 0 0-.329-1.007c-.077-.011-.086.029-.117.049a.761.761 0 0 0-.259.271 2.24 2.24 0 0 0-.095.368c-.029.121-.074.256-.094.394s-.022.276-.047.418a4 4 0 0 0-.07.417 12.183 12.183 0 0 0 0 1.5c.009.146 0 .329.141.368.095-.023.124-.14.165-.221m-5.317.148a1.094 1.094 0 0 0-.471.319c-.112.126-.206.257-.306.368a1.128 1.128 0 0 0-.235.345 2.974 2.974 0 0 0-.258.614 2.513 2.513 0 0 0-.048.934 1.27 1.27 0 0 0 .095.245c.236.424.486-.045.658-.295.014-.02.057-.027.07-.049s.006-.068.023-.1c.028-.047.066-.1.095-.147.063-.117.132-.21.188-.3a5.317 5.317 0 0 0 .471-.958 1.2 1.2 0 0 0 .117-.884.364.364 0 0 0-.4-.1" transform="translate(-1.633 -3.892)"/>
                    <path id="패스_14429" data-name="패스 14429" class="cls-7" d="M83.013 176.708a1.409 1.409 0 0 1 .565.024 1.428 1.428 0 0 1 .518.541 1.061 1.061 0 0 1 .047.589.694.694 0 0 1-.329.517 1.388 1.388 0 0 1-.494.221 1.468 1.468 0 0 1-.565.049 1 1 0 0 1-.682-.442 1.465 1.465 0 0 1-.048-.885 1.053 1.053 0 0 1 .282-.344c.008-.007.018-.046.023-.05s.038.008.048 0c.05-.043.07-.1.117-.122a.809.809 0 0 1 .094-.025c.02-.008.059-.045.071-.049a1.629 1.629 0 0 1 .353-.024" transform="translate(-1.897 -4.089)"/>
                    <path id="패스_14430" data-name="패스 14430" class="cls-4" d="M57 44.124a2.479 2.479 0 1 1 3.384.918A2.478 2.478 0 0 1 57 44.124" transform="translate(-1.311 -.935)"/>
                    <path id="패스_14431" data-name="패스 14431" class="cls-7" d="M64.082 170.484c-.1-.044-.186.054-.264.1a2.941 2.941 0 0 1-.55.271.534.534 0 0 1-.484-.024.737.737 0 0 1-.308-.345c-.008-.018-.04-.037-.044-.049s.009-.054 0-.073a1.4 1.4 0 0 1-.109-.222 1.675 1.675 0 0 1-.022-.271.929.929 0 0 1 .022-.245 1.078 1.078 0 0 1 .308-.467 2.21 2.21 0 0 1 .461-.271c.172-.087.326-.19.484-.271.087-.044.18-.063.265-.1.039-.017.067-.057.109-.074s.1-.006.154-.024c.186-.069.358-.142.549-.2a3.519 3.519 0 0 1 .615-.1c.213-.021.425-.063.638-.073.235-.012.468 0 .682-.024a3.181 3.181 0 0 1 .659-.025 2.048 2.048 0 0 1 .285.1l.132.049a4.741 4.741 0 0 1 .726.369 1.267 1.267 0 0 1 .2.172c.144.13.362.265.506.418a3.253 3.253 0 0 1 .242.344c.079.115.173.224.241.344.01.018.009.055.022.073s.04.017.044.025c.016.034.007.088.021.122s.055.049.066.074c.018.041.007.086.021.123.031.074.063.127.088.2s.042.144.066.221a7.948 7.948 0 0 1 .264.934 12.869 12.869 0 0 1 .153 2.827 6.307 6.307 0 0 1-.044.54c-.006.042-.037.084-.044.123-.02.128-.021.265-.044.394a4.466 4.466 0 0 1-.109.466 5.454 5.454 0 0 1-.308.861 2.2 2.2 0 0 1-.308.418 3.21 3.21 0 0 1-.264.3 4.6 4.6 0 0 1-.4.27c-.064.044-.13.078-.2.123-.031.021-.058.057-.088.074-.09.051-.213.1-.33.148-.048.021-.119.044-.176.073a3.375 3.375 0 0 1-.417.123 3.487 3.487 0 0 1-1.319.024c-.04-.006-.1.01-.133 0-.011 0-.058-.047-.065-.049-.062-.015-.144-.028-.22-.05a.819.819 0 0 0-.2-.049c-.1 0-.163.068-.264.123a1.2 1.2 0 0 1-.857.123 1.25 1.25 0 0 1-.374-.172c-.018-.013-.038-.051-.065-.074s-.076-.036-.088-.049-.023-.068-.044-.1-.056-.029-.066-.049 0-.093-.021-.148-.063-.083-.066-.1a4.534 4.534 0 0 1-.044-.712 18.184 18.184 0 0 1 .044-2.163c.057-.687.091-1.365.132-2.065.015-.244.007-.486.022-.712.017-.253.092-.5.109-.762a7.233 7.233 0 0 0 0-.836m2.045 5.825a1.872 1.872 0 0 0 .571.024 1.006 1.006 0 0 0 .4-.123c.067-.029.147-.043.2-.073a1.183 1.183 0 0 0 .153-.148c.02-.017.049-.009.066-.024a3.078 3.078 0 0 0 .484-.541c.007-.011 0-.036 0-.049s.038-.016.044-.024 0-.037 0-.05.039-.014.044-.023c.018-.037.023-.1.044-.148a1.472 1.472 0 0 0 .088-.221 5.589 5.589 0 0 0 .088-.762c.01-.153.043-.311.044-.467 0-.138-.034-.293-.044-.443-.011-.167-.007-.333-.022-.491-.021-.218-.061-.435-.088-.639-.037-.283-.1-.625-.153-.861-.018-.083-.025-.165-.044-.221a1.5 1.5 0 0 0-.264-.368c-.044-.061-.068-.143-.11-.2a1.271 1.271 0 0 0-.264-.245c-.037-.03-.071-.069-.109-.1a.939.939 0 0 0-.791-.221 1.036 1.036 0 0 0-.418.2 39.974 39.974 0 0 0-.22 6.144c.086.091.209.058.308.073" transform="translate(-1.442 -3.888)"/>
                    <path id="패스_14432" data-name="패스 14432" class="cls-7" d="M89.265 173.094c.021.13.14.19.212.295.016.023.006.03.023.049s.028.054.047.074l.024.025c.031.055.034.122.069.171a2.516 2.516 0 0 0 .189.2c.063.067.125.121.189.2.113.137.231.284.353.418s.235.275.353.418.237.261.353.393c.059.067.105.148.165.222s.131.129.189.2a2.561 2.561 0 0 0 .211.271c.009.008.039-.009.048 0s-.008.041 0 .049c.138.147.294.34.446.517a1.467 1.467 0 0 1 .4.639.786.786 0 0 1 .024.417 2.715 2.715 0 0 1-.095.319.6.6 0 0 1-.047.148.878.878 0 0 1-.306.221c-.06.026-.142.025-.212.049s-.112.063-.164.074a1.111 1.111 0 0 1-1.177-.517c-.017-.021-.03-.053-.047-.073-.031-.04-.1-.092-.141-.147-.016-.022-.008-.032-.023-.049s-.025-.063-.047-.1-.034-.03-.048-.049-.008-.048-.023-.074c-.037-.064-.072-.115-.117-.2a3.054 3.054 0 0 0-.189-.319c-.028-.038-.087-.061-.117-.1-.016-.02-.01-.054-.023-.073-.03-.042-.094-.113-.142-.172-.013-.017-.036-.034-.047-.05s-.009-.056-.023-.073c-.122-.148-.275-.272-.4-.418-.018-.021-.032-.054-.047-.073-.085-.108-.219-.25-.33-.369-.017-.018-.027-.06-.047-.073s-.052-.006-.07-.024-.039-.089-.07-.123c-.046-.051-.114-.087-.165-.147-.008-.009.008-.041 0-.049s-.04.008-.047 0-.011-.036-.023-.05c-.092-.1-.221-.3-.4-.344a1.967 1.967 0 0 0-.024.663c0 .438.026.912.047 1.376a4.138 4.138 0 0 1-.022.836 1.139 1.139 0 0 1-.071.172.7.7 0 0 1-.023.1c-.006.011-.043.017-.047.024-.084.2-.231.269-.447.369a1.042 1.042 0 0 1-.565.147.863.863 0 0 1-.446-.2c-.009-.007-.017-.046-.023-.05-.055-.025-.074-.058-.118-.122a2.775 2.775 0 0 1-.282-.566 2.689 2.689 0 0 1-.141-.786 13.815 13.815 0 0 1 0-1.671c.052-.705.018-1.443.07-2.212.024-.361.038-.73.047-1.106.009-.359.051-.717.071-1.082.018-.33.021-.728.047-1.106a2.59 2.59 0 0 1 .141-.983c.112-.134.445-.174.683-.222.116-.022.249-.05.376-.073a1.341 1.341 0 0 1 .4-.049.812.812 0 0 1 .259.1.642.642 0 0 1 .235.319 2.568 2.568 0 0 1-.07.59c-.014.2-.016.405-.023.614a17.665 17.665 0 0 0-.023 1.819c.119 0 .189-.132.258-.221.024-.031.053-.051.071-.074s.008-.052.023-.073.038-.013.047-.025c.08-.11.157-.248.259-.368.057-.066.146-.157.212-.246.086-.114.148-.251.235-.368.014-.02.031-.025.047-.049.035-.057.133-.126.188-.2.043-.054.068-.122.118-.2.022-.034.049-.042.07-.073.06-.085.108-.157.165-.246a.967.967 0 0 1 .141-.172.843.843 0 0 0 .094-.123 5.5 5.5 0 0 1 .494-.565c.031-.032.091-.059.142-.1a1.457 1.457 0 0 1 1.246-.394 1.036 1.036 0 0 1 .306.1c.052.021.1.028.142.049a.907.907 0 0 1 .234.173.689.689 0 0 1 .259.54.364.364 0 0 1-.117.221.8.8 0 0 1-.07.1c-.024.021-.066.024-.095.049-.055.051-.1.1-.164.147-.1.076-.168.137-.259.222-.11.1-.268.258-.4.368-.02.017-.052.007-.07.024-.118.115-.284.282-.423.418-.106.1-.209.206-.306.319s-.187.234-.282.344-.226.212-.306.319c-.065.088-.119.193-.189.3-.018.025-.029.075-.047.1s-.072.045-.095.073-.022.068-.047.1c-.048.06-.1.107-.141.172-.164.246-.328.5-.494.762" transform="translate(-1.985 -3.893)"/>
                    <path id="패스_14433" data-name="패스 14433" class="cls-4" d="M17.861 109.5c-1.86 0-2.971-1.3-2.971-3.468v-5.613c0-2.172 1.111-3.469 2.971-3.469a2.721 2.721 0 0 1 2.858 2.722c0 .108 0 .413-.324.413h-.9c-.167 0-.361-.037-.388-.33a1.3 1.3 0 0 0-1.233-1.209c-.8 0-1.294.718-1.294 1.874v5.613c0 1.155.5 1.872 1.294 1.872.626 0 1.087-.456 1.234-1.22.025-.281.22-.319.387-.319h.9c.324 0 .324.3.324.405a2.723 2.723 0 0 1-2.858 2.73" transform="translate(-.345 -2.244)"/>
                    <path id="패스_14434" data-name="패스 14434" class="cls-4" d="M26.526 109.506c-1.86 0-2.971-1.3-2.971-3.468v-5.614c0-2.172 1.111-3.468 2.971-3.468s2.971 1.3 2.971 3.468v5.614c0 2.172-1.111 3.468-2.971 3.468m0-10.954c-.789 0-1.279.718-1.279 1.873v5.614c0 1.172.478 1.872 1.279 1.872s1.28-.7 1.28-1.872v-5.614c0-1.155-.49-1.873-1.28-1.873" transform="translate(-.545 -2.244)"/>
                    <path id="패스_14435" data-name="패스 14435" class="cls-4" d="M32.868 109.364a.4.4 0 0 1-.453-.452V97.555a.4.4 0 0 1 .453-.452h3.784a.4.4 0 0 1 .453.452v.61a.4.4 0 0 1-.453.453H34.3c-.177 0-.19.013-.19.189v3.288c0 .176.013.189.19.189h1.555a.4.4 0 0 1 .453.453v.61a.4.4 0 0 1-.453.452H34.3c-.177 0-.19.012-.19.189v4.924a.4.4 0 0 1-.452.452z" transform="translate(-.75 -2.247)"/>
                    <path id="패스_14436" data-name="패스 14436" class="cls-4" d="M40.088 109.364a.4.4 0 0 1-.453-.452V97.555a.4.4 0 0 1 .453-.452h3.785a.4.4 0 0 1 .452.452v.61a.4.4 0 0 1-.452.453h-2.358c-.176 0-.189.013-.189.189v3.288c0 .176.013.189.189.189h1.555a.4.4 0 0 1 .453.453v.61a.4.4 0 0 1-.453.452h-1.555c-.176 0-.189.012-.189.189v4.924a.4.4 0 0 1-.453.452z" transform="translate(-.917 -2.247)"/>
                    <path id="패스_14437" data-name="패스 14437" class="cls-4" d="M47.308 109.364a.4.4 0 0 1-.453-.452V97.555a.4.4 0 0 1 .453-.452h3.769a.4.4 0 0 1 .453.452v.61a.4.4 0 0 1-.453.453h-2.342c-.176 0-.189.013-.189.189v3.288c0 .176.013.189.189.189h2.342a.4.4 0 0 1 .453.453v.61a.4.4 0 0 1-.453.452h-2.342c-.176 0-.189.012-.189.189v3.673c0 .176.013.189.189.189h2.342a.4.4 0 0 1 .453.452v.611a.4.4 0 0 1-.453.452z" transform="translate(-1.084 -2.247)"/>
                    <path id="패스_14438" data-name="패스 14438" class="cls-4" d="M54.872 109.364a.4.4 0 0 1-.453-.452V97.555a.4.4 0 0 1 .453-.452h3.769a.4.4 0 0 1 .453.452v.61a.4.4 0 0 1-.453.453H56.3c-.176 0-.189.013-.189.189v3.288c0 .176.013.189.189.189h2.342a.4.4 0 0 1 .453.453v.61a.4.4 0 0 1-.453.452H56.3c-.176 0-.189.012-.189.189v3.673c0 .176.013.189.189.189h2.342a.4.4 0 0 1 .453.452v.611a.4.4 0 0 1-.453.452z" transform="translate(-1.259 -2.247)"/>
                    <path id="패스_14439" data-name="패스 14439" class="cls-4" d="M114.663 109.364a.4.4 0 0 1-.452-.452V97.555a.4.4 0 0 1 .452-.452h2.326a2.812 2.812 0 0 1 2.938 3.115v.337a2.848 2.848 0 0 1-1.086 2.369 2.967 2.967 0 0 1 1.279 2.764v.481a2.858 2.858 0 0 1-3.019 3.2zm1.427-5.63c-.176 0-.189.013-.189.189v3.736c0 .177.013.189.189.189h.851c.984 0 1.5-.609 1.5-1.76v-.588c0-1.152-.52-1.761-1.5-1.761zm0-5.116c-.163 0-.189 0-.189.221v3.192c0 .176.013.188.189.188h.754c.9 0 1.423-.589 1.423-1.616v-.368c0-1.042-.505-1.617-1.423-1.617z" transform="translate(-2.643 -2.247)"/>
                    <path id="패스_14440" data-name="패스 14440" class="cls-4" d="M127.756 109.365c-.27 0-.409-.123-.467-.414l-.449-2.148c-.029-.119-.033-.132-.207-.132h-2.02c-.174 0-.178.013-.208.136l-.448 2.145c-.058.29-.2.413-.466.413h-.834a.366.366 0 0 1-.3-.116.4.4 0 0 1-.057-.343l2.469-11.39c.083-.346.256-.411.547-.411h.61a.466.466 0 0 1 .546.41l2.47 11.389a.4.4 0 0 1-.056.345.368.368 0 0 1-.3.116zm-3.046-4.247 1.81.038-.9-4.694z" transform="translate(-2.83 -2.247)"/>
                    <path id="패스_14441" data-name="패스 14441" class="cls-4" d="M136.368 109.364a.454.454 0 0 1-.477-.3l-1.7-4.418h-.819c-.176 0-.189.013-.189.19v4.073a.4.4 0 0 1-.452.452h-.786a.4.4 0 0 1-.452-.452V97.555a.4.4 0 0 1 .452-.452h2.326c1.746 0 2.875 1.286 2.875 3.275v1.01a3.141 3.141 0 0 1-1.382 2.875l1.823 4.621a.371.371 0 0 1-.009.353.3.3 0 0 1-.26.127zm-3-10.745c-.176 0-.189.013-.189.189v4.09c0 .176.013.189.189.189h.8c.6 0 1.3-.444 1.3-1.7v-1.058c0-1.262-.67-1.712-1.3-1.712z" transform="translate(-3.043 -2.247)"/>
                    <path id="패스_14442" data-name="패스 14442" class="cls-4" d="M49.448 48 39.4 35.781a1.092 1.092 0 0 1 .11-1.545l1.044-1.27c.491-.628 1.11-.466 1.586.113l10.122 12.308c.2.245.393.387.659.167a1.674 1.674 0 0 0 .354-.478c.27-.444.619-.472 1.182-.15l.959.666c.621.348.671.68.484 1.132a4.364 4.364 0 0 1-1.371 1.876c-1.737 1.427-3.543 1.272-5.081-.6" transform="translate(-.906 -.754)"/>
                    <path id="패스_14443" data-name="패스 14443" class="cls-4" d="M80.263 31.95a7.892 7.892 0 1 1 6.268 8.979 7.545 7.545 0 0 1-6.268-8.979M92 34.287a4.084 4.084 0 1 0-8-1.593 4.083 4.083 0 1 0 8 1.593" transform="translate(-1.854 -.599)"/>
                    <path id="패스_14444" data-name="패스 14444" class="cls-4" d="M30.319 63.122c-5.353-1.619-10.049.964-11.786 6.7l-1.97 6.512c-.058.19-.167.787-.211.928a4.217 4.217 0 0 0-.135 2.044c.09.573.413.8 1.051.787l1.241.092c.629.018.864-.241.859-.606a8.011 8.011 0 0 1 .051-.83.318.318 0 0 1 .309-.254l13.33 4.036a1.061 1.061 0 0 0 1.437-.77l1.97-6.512c1.737-5.738-.739-10.491-6.145-12.129m3.022 11.3L32.2 78.206 20.445 74.65l1.145-3.78c1.034-3.42 3.962-5.035 7.6-3.931 3.615 1.093 5.183 4.067 4.149 7.488" transform="translate(-.374 -1.45)"/>
                    <path id="패스_14445" data-name="패스 14445" class="cls-4" d="M78.66 37.357 78 36.146c-.335-.573-.613-.629-1.138-.333a1.508 1.508 0 0 1-.663.209c-.456.073-.967-.225-2.071-1.187l-4.944-4.351 5.016-8.817c.373-.7-.106-1.128-.78-.976l-2.334.528c-.732.165-.981.636-1.4 1.41l-4.816 8.388-1.555-6.89A1 1 0 0 0 62 23.272l-1.631.368c-.136.031-.829.186-1.073.246a4.212 4.212 0 0 0-1.814.952c-.443.375-.464.767-.123 1.307l.57 1.106c.313.547.655.611.964.416a7.692 7.692 0 0 1 .736-.389c.251-.063.4.05.474.358l.205.835 2.843 12.569a1.04 1.04 0 0 0 1.35.877l1.631-.369a1.018 1.018 0 0 0 .814-1.367l-1.119-4.949 1.106-1.9 4.128 3.618A16.791 16.791 0 0 0 74 39.21a3.936 3.936 0 0 0 2.784.287 3.184 3.184 0 0 0 1.7-.857.874.874 0 0 0 .184-1.283" transform="translate(-1.322 -.478)"/>
                    <path id="패스_14446" data-name="패스 14446" class="cls-4" d="M118.78 42.5a6.076 6.076 0 0 0-5.266-1.477 5.815 5.815 0 0 0-7.146-6.015 2.909 2.909 0 0 0-.806-3.843 4.233 4.233 0 0 0-1.83-.923c-.562-.141-.895.068-1.136.659l-.569 1.108c-.263.571-.116.887.223 1.025.215.148.547.2.743.372s.19.354-.015.594l-6.4 7.463a1.021 1.021 0 0 0 .1 1.566l1.268 1.089a1 1 0 0 0 1.542-.16l4.691-5.47a2.959 2.959 0 0 1 4.407-.4c1.378 1.182 1.381 2.817.123 4.284l-4.691 5.47a1.024 1.024 0 0 0 .1 1.567l1.27 1.088a1 1 0 0 0 1.542-.159l4.691-5.47a2.959 2.959 0 0 1 4.406-.4c1.379 1.182 1.381 2.817.125 4.284l-2.34 2.728-.694.8c-1.584 1.832-1.433 3.641.268 5.111a4.342 4.342 0 0 0 2.078 1.035c.479.109.8 0 1.035-.666L117 56.7c.222-.61.136-.95-.348-1.141a1.675 1.675 0 0 1-.53-.268c-.247-.214-.162-.415.022-.639l.513-.6 1.6-1.853-.008-.007 1-1.169c2.4-2.8 2.243-6.2-.47-8.53" transform="translate(-2.228 -.699)"/>
                    <path id="패스_14447" data-name="패스 14447" class="cls-4" d="M135.156 72.437a6.068 6.068 0 0 0-3.911-3.82 5.816 5.816 0 0 0-3.385-8.7 2.906 2.906 0 0 0 1.14-3.764 4.226 4.226 0 0 0-1.162-1.686c-.425-.394-.817-.369-1.311.034l-1.031.7c-.505.376-.528.724-.3 1.006.119.232.383.441.475.684s0 .4-.3.513l-9.193 3.479a1.022 1.022 0 0 0-.663 1.422l.592 1.563a1 1 0 0 0 1.427.6l6.741-2.55a2.96 2.96 0 0 1 4.057 1.762c.642 1.7-.141 3.135-1.946 3.819l-6.74 2.55a1.023 1.023 0 0 0-.664 1.421l.591 1.564a1 1 0 0 0 1.429.6l6.74-2.55a2.958 2.958 0 0 1 4.056 1.763c.644 1.7-.14 3.134-1.946 3.818l-1.832.693v.014l-2.454.934c-2.262.862-2.987 2.525-2.187 4.626a4.35 4.35 0 0 0 1.339 1.9c.369.322.7.381 1.228-.1l.938-.7c.484-.432.57-.773.234-1.169a1.668 1.668 0 0 1-.34-.487c-.123-.323.071-.459.368-.572l2.978-1.134v-.011l1.358-.513c3.45-1.306 4.943-4.367 3.678-7.709" transform="translate(-2.671 -1.254)"/>
                    <path id="패스_14448" data-name="패스 14448" class="cls-4" d="m48.375 50.645-1.111-.36c-.632-.143-.959-.016-1.087.488a1.69 1.69 0 0 1-.2.56c-.191.287-.415.207-.679.031l-1.89-1.264-5.751-4.356a1 1 0 0 0-1.536.211l-.644.851a1 1 0 0 0 .213 1.535l.528.4a7.179 7.179 0 0 0-4.457 2.734c-2.559 3.379-1.726 7.77 1.675 10.347 3.378 2.557 7.854 2.187 10.412-1.192a6.383 6.383 0 0 0 1.227-5.123l-.125-.127a3.143 3.143 0 0 0 3.45-1.603 4.35 4.35 0 0 0 .768-2.19c.048-.488-.1-.791-.792-.943m-6.844 7.512a3.984 3.984 0 0 1-5.8.636 4.01 4.01 0 0 1-.983-5.77 3.905 3.905 0 0 1 5.786-.572 3.912 3.912 0 0 1 .994 5.707" transform="translate(-.7 -1.053)"/>
                </g>
            </g>
        </g>
    </g>
</svg>
