<svg xmlns="http://www.w3.org/2000/svg" width="479.5928mm" height="89.948753mm" viewBox="0 0 479.5928 89.948753"><g style="fill:#e41f26;fill-opacity:1;stroke-width:.0889391"><g style="fill:#e41f26;fill-opacity:1;stroke-width:.0889391"><path d="M0 0c-1.463 0-2.585 1.511-2.585 3.371 0 1.868 1.122 3.381 2.585 3.381 1.472 0 2.594-1.513 2.594-3.381C2.594 1.511 1.472 0 0 0m0 7.68c-3.063 0-4.904-1.926-4.904-4.309C-4.904.999-3.063-.924 0-.924c3.069 0 4.911 1.923 4.911 4.295C4.911 5.754 3.069 7.68 0 7.68" style="fill:#e41f26;fill-opacity:1;fill-rule:nonzero;stroke:none;stroke-width:.0889391" transform="matrix(3.96652 0 0 -3.96652 158.63 58.804)"/></g><g style="fill:#e41f26;fill-opacity:1;stroke-width:.0889391"><path d="M0 0h-8.393v-.953h3.232v-6.971h2.435v6.971H0Z" style="fill:#e41f26;fill-opacity:1;fill-rule:nonzero;stroke:none;stroke-width:.0889391" transform="matrix(3.96652 0 0 -3.96652 213.067 29.618)"/></g><g style="fill:#e41f26;fill-opacity:1;stroke-width:.0889391"><path d="M0 0h-8.393v-.953h2.72v-6.971h2.437v6.971H0Z" style="fill:#e41f26;fill-opacity:1;fill-rule:nonzero;stroke:none;stroke-width:.0889391" transform="matrix(3.96652 0 0 -3.96652 249.9 29.618)"/></g><g style="fill:#e41f26;fill-opacity:1;stroke-width:.0889391"><path d="M0 0h-2.335v-6.983c0-.524.418-.941.926-.941H4.57v.949H.466A.465.465 0 0 0 0-6.507Z" style="fill:#e41f26;fill-opacity:1;fill-rule:nonzero;stroke:none;stroke-width:.0889391" transform="matrix(3.96652 0 0 -3.96652 119.937 29.616)"/></g><g style="fill:#e41f26;fill-opacity:1;stroke-width:.0889391"><path d="M0 0h-6.368a.936.936 0 0 1-.931-.945v-6.039c0-.523.417-.946.931-.946H0v.942h-4.488a.47.47 0 0 0-.473.468v2.34H-.07v.926h-4.891v1.848c0 .265.21.469.473.469H0Z" style="fill:#e41f26;fill-opacity:1;fill-rule:nonzero;stroke:none;stroke-width:.0889391" transform="matrix(3.96652 0 0 -3.96652 284.099 29.612)"/></g><g style="fill:#e41f26;fill-opacity:1;stroke-width:.0889391"><path d="M0 0v2.617h2.073c.729 0 1.289-.569 1.289-1.309C3.362.569 2.802 0 2.073 0Zm2.073 3.755h-3.305v-7.964H0v3.072h1.794l1.68-3.072h1.345L3.025-1.024s1.571.569 1.571 2.332c0 1.365-1.065 2.447-2.523 2.447" style="fill:#e41f26;fill-opacity:1;fill-rule:nonzero;stroke:none;stroke-width:.0889391" transform="matrix(3.96652 0 0 -3.96652 307.402 44.422)"/></g><g style="fill:#e41f26;fill-opacity:1;stroke-width:.0889391"><path d="M0 0h-5.547v-7.964H.112v1.138h-4.427v2.446h3.419v1.138h-3.419v2.105H0Z" style="fill:#e41f26;fill-opacity:1;fill-rule:nonzero;stroke:none;stroke-width:.0889391" transform="matrix(3.96652 0 0 -3.96652 356.067 29.53)"/></g><g style="fill:#e41f26;fill-opacity:1;stroke-width:.0889391"><path d="M0 0c-1.626 0-2.579-.967-2.579-2.161 0-2.958 4.147-1.82 4.147-3.64 0-.683-.561-1.252-1.568-1.252-1.402 0-2.017.91-2.017.91l-.785-.797S-1.906-8.191 0-8.191c1.793 0 2.8 1.024 2.8 2.39 0 2.957-4.145 1.82-4.145 3.64 0 .512.503 1.024 1.345 1.024 1.064 0 1.568-.683 1.568-.683l.786.796S1.568 0 0 0" style="fill:#e41f26;fill-opacity:1;fill-rule:nonzero;stroke:none;stroke-width:.0889391" transform="matrix(3.96652 0 0 -3.96652 372.06 29.08)"/></g><g style="fill:#e41f26;fill-opacity:1;stroke-width:.0889391"><path d="M0 0c-1.626 0-2.914 1.308-2.914 2.957 0 1.65 1.288 2.959 2.914 2.959 1.625 0 2.913-1.309 2.913-2.959C2.913 1.308 1.625 0 0 0m0 7.054c-2.355 0-4.147-1.82-4.147-4.097C-4.147.683-2.355-1.137 0-1.137c2.354 0 4.146 1.82 4.146 4.094 0 2.277-1.792 4.097-4.146 4.097" style="fill:#e41f26;fill-opacity:1;fill-rule:nonzero;stroke:none;stroke-width:.0889391" transform="matrix(3.96652 0 0 -3.96652 404.943 57.057)"/></g><g style="fill:#e41f26;fill-opacity:1;stroke-width:.0889391"><path d="M0 0v2.617h2.073c.729 0 1.289-.569 1.289-1.309C3.362.569 2.802 0 2.073 0Zm2.073 3.755h-3.305v-7.964H0v3.072h1.794l1.68-3.072h1.345L3.026-1.024s1.57.569 1.57 2.332c0 1.365-1.065 2.447-2.523 2.447" style="fill:#e41f26;fill-opacity:1;fill-rule:nonzero;stroke:none;stroke-width:.0889391" transform="matrix(3.96652 0 0 -3.96652 433.815 44.422)"/></g><g style="fill:#e41f26;fill-opacity:1;stroke-width:.0889391"><path d="M0 0h-5.941v-1.138h2.355v-6.826h1.231v6.826H0Z" style="fill:#e41f26;fill-opacity:1;fill-rule:nonzero;stroke:none;stroke-width:.0889391" transform="matrix(3.96652 0 0 -3.96652 479.593 29.53)"/></g><g style="fill:#e41f26;fill-opacity:1;stroke-width:.0889391"><path d="M0 0a.69.69 0 0 0-.688.672.7.7 0 0 0 .182.504.7.7 0 0 0 .48.227h.031A.7.7 0 0 0 .694.73.7.7 0 0 0 .033 0Zm4.343-.011c-.741 0-1.264.287-1.636.538a4.4 4.4 0 0 0-1.023.979C-.29 4.082-.425 8.911-.433 9.452c-.024 1.285.159 3.025 1.146 4.021.483.487 1.089.734 1.797.734h.117c.711 0 1.315-.247 1.798-.734.989-.996 1.172-2.736 1.151-4.021-.023-1.337-.265-3.931-1.63-6.256a.62.62 0 0 0-.535-.307l-.316.09a.64.64 0 0 0-.217.862c.959 1.627 1.421 3.417 1.457 5.632.024 1.471-.251 2.572-.785 3.108-.242.248-.547.37-.924.37h-.109c-.38 0-.683-.122-.93-.37-.527-.536-.808-1.637-.783-3.108.029-1.809.456-5.363 1.858-7.196a3.2 3.2 0 0 1 .727-.701c.251-.165.525-.328.959-.328q.176 0 .374.038c.804.195 1.814 1.103 2.563 2.314a.62.62 0 0 0 .525.293l.33-.096a.637.637 0 0 0 .193-.867C7.386 1.4 6.133.324 4.985.054L4.957.049a3.4 3.4 0 0 0-.614-.06m-1.57 18.319a6.42 6.42 0 0 1-4.597-1.928l-4.675-4.741c-2.531-2.57-2.531-6.77 0-9.342l4.675-4.74a6.43 6.43 0 0 1 4.597-1.926c1.667 0 3.335.642 4.6 1.926l4.673 4.74c2.531 2.572 2.531 6.772 0 9.342L7.373 16.38a6.43 6.43 0 0 1-4.6 1.928" style="fill:#e41f26;fill-opacity:1;fill-rule:nonzero;stroke:none;stroke-width:.0889391" transform="matrix(3.96652 0 0 -3.96652 33.308 72.619)"/></g></g></svg>