<svg xmlns="http://www.w3.org/2000/svg" width="619.8877pt" height="361.82352pt" fill-rule="evenodd" viewBox="0 0 619.88769 361.82351"><g style="stroke-width:.33507"><path d="M240.998 518.998c-7.883 0-12.605 4.698-12.605 10.495 0 5.788 4.721 10.493 12.604 10.493 7.888 0 12.611-4.705 12.611-10.493 0-5.797-4.723-10.495-12.61-10.495m0 18.732c-3.646 0-6.414-3.688-6.414-8.237s2.768-8.242 6.413-8.242c3.644 0 6.416 3.694 6.416 8.242s-2.772 8.237-6.415 8.237M275.883 519.77h-22.046v2.324h7.888v17.036h6.255v-17.036h7.903zM299.922 519.77h-22.044v2.324h7.89v17.036h6.249v-17.036h7.905zM310.023 522.046h10.407v-2.284h-15.578c-1.403.058-2.939.587-2.939 3.099v13.153c0 2.514 1.536 3.045 2.939 3.099h15.578v-2.283h-10.407c-1.322-.079-1.876-.639-1.876-2.169v-5.237h12.104v-2.266h-12.104v-2.944c0-1.532.554-2.087 1.876-2.168M219.522 536.796c-1.323-.078-1.877-.6-1.877-2.135v-14.89h-6.237v16.243c0 2.515 1.533 3.045 2.938 3.104h14.159v-2.322z" style="fill:#e21c2a;stroke:none;stroke-width:.106248" transform="matrix(2.98445 0 0 2.98445 -483.636 -1376.874)"/><path d="M169.264 550.713h-7.212l5.162 18.605s.655 3.229 4.637 3.229 4.491-3.176 4.491-3.176l2.43-8.568 2.23 8.568s.822 3.176 4.56 3.176 4.285-3.104 4.285-3.104l5.633-18.73h-3.719l-4.433 15.589-4.165-15.589h-7.394l1.246 4.484-3.348 10.832zM207.872 553.924s-.822-3.211-4.349-3.211-4.148 2.816-4.285 3.103l-6.201 18.731h3.719l1.279-3.985h7.244l1.209 3.985h7.395zm-8.804 11.416 2.689-8.382 2.544 8.382zM316.533 553.924s-.822-3.211-4.349-3.211-4.148 2.816-4.285 3.103l-6.201 18.731h3.72l1.278-3.985h7.244l1.209 3.985h7.395zm-8.804 11.416 2.689-8.382 2.544 8.382zM212.211 554.656h18.8v-3.943h-18.8z" style="fill:#009fe0;stroke:none;stroke-width:.106248" transform="matrix(2.98445 0 0 2.98445 -483.636 -1376.874)"/><path d="M218.093 572.547h6.978v-21.834h-6.978zM237.438 550.713h10.916v3.161h-6.137c-.925 0-1.683.777-1.683 1.725v4.424h6.981v3.173h-6.981v4.465c0 .948.757 1.725 1.683 1.725h6.421v3.161h-11.2c-2.197 0-3.994-1.771-3.994-3.936v-13.962c0-2.165 1.797-3.936 3.994-3.936M264.411 572.547h8.137l-6.29-9.506c2.472-1.022 4.201-3.274 4.201-5.872 0-3.551-3.227-6.456-7.171-6.456h-11.707v21.834h7.235v-18.884h.328c2.266 0 4.12 1.842 4.12 4.094s-1.593 4.109-4.039 3.915c-.156-.012 4.582 9.607 5.186 10.875M337.89 572.547h8.137l-6.29-9.506c2.472-1.022 4.201-3.274 4.201-5.872 0-3.551-3.227-6.456-7.171-6.456h-11.708v21.834h7.235v-18.884h.328c2.267 0 4.121 1.842 4.121 4.094s-1.593 4.109-4.039 3.915c-.156-.012 4.582 9.607 5.186 10.875M348.492 537.312v35.235h7.236v-35.224zM279.772 550.713h11.759c5.795 0 10.536 4.892 10.536 10.873 0 7.83-4.741 10.872-10.536 10.872h-4.378v10.128h-7.381zm7.381 2.988v15.769h1.665c3.898 0 5.396-4.595 5.396-7.713 0-4.337-2.294-8.056-5.396-8.056zM362.629 550.759l-6.613 11.41 5.816 10.378 7.926-.094-7.504-13.618 4.784-8.123zM249.119 499.651c-4.467 5.072 2.735 9.057 6.694 1.138 2.446-5.921 9.494-4.878 10.902 1.643.142.408.802 6.156 4.631 5.226 0 0-.674-3.708-4.841-7.796 0 0-1.931-1.9-3.097-3.502 0 0-3.132-4.304-6.998-.433 0 0-4.225 5.592-7.291 3.724" style="fill:#009fe0;stroke:none;stroke-width:.106248" transform="matrix(2.98445 0 0 2.98445 -483.636 -1376.874)"/><path d="M260.876 506.762a3.04 3.04 0 0 0 3.032-3.032 3.04 3.04 0 0 0-3.032-3.032 3.04 3.04 0 0 0-3.033 3.032 3.04 3.04 0 0 0 3.033 3.032" style="fill:#009fe0;stroke:none;stroke-width:.106248" transform="matrix(2.98445 0 0 2.98445 -483.636 -1376.874)"/><path d="M274.817 496.484a2.327 2.327 0 0 0 2.322-2.323 2.327 2.327 0 0 0-2.322-2.323 2.327 2.327 0 0 0-2.323 2.323 2.327 2.327 0 0 0 2.323 2.323" style="fill:#009240;stroke:none;stroke-width:.106248" transform="matrix(2.98445 0 0 2.98445 -483.636 -1376.874)"/><path d="M249.121 499.645c-.736-.794-.805-1.257-.824-1.872-.1-3.216 6.551-4.335 7.426-6.727.067 4.621-4.857 7.045-6.602 8.599" style="fill:#5a3483;stroke:none;stroke-width:.106248" transform="matrix(2.98445 0 0 2.98445 -483.636 -1376.874)"/><path d="M245.807 476.29c3.013-5.998 9.473 3.73 13.389 3.607-5.934 1.61-10.477-2.379-13.389-3.607" style="fill:#e21c2a;stroke:none;stroke-width:.106248" transform="matrix(2.98445 0 0 2.98445 -483.636 -1376.874)"/><path d="M245.785 476.281c-7.821-.32-5.662 6.569.115 7.459 4.952.763 9.224 2.889 9.823 7.31 3.602-4.427-2.653-8.97-6.58-9.978 0 0-3.825-1.284-3.358-4.791" style="fill:#5a3483;stroke:none;stroke-width:.106248" transform="matrix(2.98445 0 0 2.98445 -483.636 -1376.874)"/><path d="M275.137 466.266c-.248-4.781-3.532-5.85-5.604-4.175-1.285 1.038-1.922 3.017-2.563 5.463-1.616 6.158-3.166 10.284-7.745 12.333 10.52 1.076 9.475-15.022 15.912-13.621" style="fill:#e21c2a;stroke:none;stroke-width:.106248" transform="matrix(2.98445 0 0 2.98445 -483.636 -1376.874)"/><path d="M247.405 491.664a2.42 2.42 0 0 0 2.413-2.413 2.42 2.42 0 0 0-2.413-2.413 2.42 2.42 0 0 0-2.413 2.413 2.42 2.42 0 0 0 2.413 2.413" style="fill:#5a3483;stroke:none;stroke-width:.106248" transform="matrix(2.98445 0 0 2.98445 -483.636 -1376.874)"/><path d="M258.1 475.769a3.765 3.765 0 0 0 3.757-3.757 3.765 3.765 0 0 0-3.757-3.758 3.765 3.765 0 0 0-3.758 3.758 3.765 3.765 0 0 0 3.758 3.757" style="fill:#e21c2a;stroke:none;stroke-width:.106248" transform="matrix(2.98445 0 0 2.98445 -483.636 -1376.874)"/><path d="M274.792 466.283c7.013 5.25-5.77 8.206-5.372 14.748 1.841 10.863 19.394-.109 17.829 9.206 5.494-.216 6.055-10.005-3.229-7.325-13.42 5.12-20.672-3.306-10.283-14.253 0 0 1.187-1.353 1.055-2.376" style="fill:#ef7e20;stroke:none;stroke-width:.106248" transform="matrix(2.98445 0 0 2.98445 -483.636 -1376.874)"/><path d="M276.245 481.873a3.187 3.187 0 0 0 3.18-3.18 3.187 3.187 0 0 0-3.18-3.18 3.187 3.187 0 0 0-3.18 3.18 3.187 3.187 0 0 0 3.18 3.18" style="fill:#ef7e20;stroke:none;stroke-width:.106248" transform="matrix(2.98445 0 0 2.98445 -483.636 -1376.874)"/><path d="M287.242 490.225s-3.018.323-5.462-.792c0 0-5.82-2.913-10.635-.431 0 0-5.929 4.424 3.916 12.411 8.122 5.41.115 13.121-3.7 6.331 6.837-2.304-2.174-8.881-3.285-12.539-.742-2.443-.563-6.135 4.506-6.347 0 0 2.623-.216 6.935 2.698 0 0 5.353 3.633 7.725-1.331" style="fill:#009240;stroke:none;stroke-width:.106248" transform="matrix(2.98445 0 0 2.98445 -483.636 -1376.874)"/></g></svg>