<?xml version="1.0" encoding="iso-8859-1"?>
<!-- Generator: Adobe Illustrator 26.0.1, SVG Export Plug-In . SVG Version: 6.00 Build 0)  -->
<svg version="1.1" id="&#xB808;&#xC774;&#xC5B4;_1" xmlns="http://www.w3.org/2000/svg" xmlns:xlink="http://www.w3.org/1999/xlink"
	 x="0px" y="0px" viewBox="0 0 190 104.802" style="enable-background:new 0 0 190 104.802;" xml:space="preserve">
<g style="opacity:0.5;">
	<g>
		<defs>
			<rect id="SVGID_1_" width="190" height="104.802"/>
		</defs>
		<clipPath id="SVGID_00000038396148881387204700000008609119719648506289_">
			<use xlink:href="#SVGID_1_"  style="overflow:visible;"/>
		</clipPath>
		<g style="clip-path:url(#SVGID_00000038396148881387204700000008609119719648506289_);">
			<g style="opacity:0.9;">
				<rect x="-3.147" y="-6.279" style="fill:#B4B3B3;" width="0.34" height="118.555"/>
			</g>
			<g style="opacity:0.4;">
				<rect x="-1.534" y="-2.877" style="fill:#B4B3B3;" width="0.153" height="110.224"/>
			</g>
			<g style="opacity:0.4;">
				<rect x="1.504" y="-2.877" style="fill:#B4B3B3;" width="0.153" height="110.224"/>
			</g>
			<g style="opacity:0.4;">
				<rect x="3.023" y="-2.877" style="fill:#B4B3B3;" width="0.153" height="110.224"/>
			</g>
			<g style="opacity:0.7;">
				<rect x="4.491" y="-11.216" style="opacity:0.8;fill:#B4B3B3;" width="0.255" height="123.492"/>
			</g>
			<g style="opacity:0.4;">
				<rect x="6.061" y="-2.877" style="fill:#B4B3B3;" width="0.153" height="110.224"/>
			</g>
			<g style="opacity:0.4;">
				<rect x="7.58" y="-2.877" style="fill:#B4B3B3;" width="0.153" height="110.224"/>
			</g>
			<g style="opacity:0.4;">
				<rect x="9.099" y="-2.877" style="fill:#B4B3B3;" width="0.153" height="110.224"/>
			</g>
			<g style="opacity:0.4;">
				<rect x="10.618" y="-2.877" style="fill:#B4B3B3;" width="0.153" height="110.224"/>
			</g>
			<g style="opacity:0.9;">
				<rect x="12.043" y="-6.279" style="fill:#B4B3B3;" width="0.34" height="118.555"/>
			</g>
			<g style="opacity:0.4;">
				<rect x="13.656" y="-2.877" style="fill:#B4B3B3;" width="0.153" height="110.224"/>
			</g>
			<g style="opacity:0.4;">
				<rect x="15.175" y="-2.877" style="fill:#B4B3B3;" width="0.153" height="110.224"/>
			</g>
			<g style="opacity:0.4;">
				<rect x="16.694" y="-2.877" style="fill:#B4B3B3;" width="0.153" height="110.224"/>
			</g>
			<g style="opacity:0.4;">
				<rect x="18.213" y="-2.877" style="fill:#B4B3B3;" width="0.153" height="110.224"/>
			</g>
			<g style="opacity:0.7;">
				<rect x="19.681" y="-11.216" style="opacity:0.8;fill:#B4B3B3;" width="0.255" height="123.492"/>
			</g>
			<g style="opacity:0.4;">
				<rect x="21.251" y="-2.877" style="fill:#B4B3B3;" width="0.153" height="110.224"/>
			</g>
			<g style="opacity:0.4;">
				<rect x="22.77" y="-2.877" style="fill:#B4B3B3;" width="0.153" height="110.224"/>
			</g>
			<g style="opacity:0.4;">
				<rect x="24.289" y="-2.877" style="fill:#B4B3B3;" width="0.153" height="110.224"/>
			</g>
			<g style="opacity:0.4;">
				<rect x="25.808" y="-2.877" style="fill:#B4B3B3;" width="0.153" height="110.224"/>
			</g>
			<g style="opacity:0.9;">
				<rect x="27.233" y="-6.279" style="fill:#B4B3B3;" width="0.34" height="118.555"/>
			</g>
			<g style="opacity:0.4;">
				<rect x="28.846" y="-2.877" style="fill:#B4B3B3;" width="0.153" height="110.224"/>
			</g>
			<g style="opacity:0.4;">
				<rect x="30.365" y="-2.877" style="fill:#B4B3B3;" width="0.153" height="110.224"/>
			</g>
			<g style="opacity:0.4;">
				<rect x="31.884" y="-2.877" style="fill:#B4B3B3;" width="0.153" height="110.224"/>
			</g>
			<g style="opacity:0.4;">
				<rect x="33.403" y="-2.877" style="fill:#B4B3B3;" width="0.153" height="110.224"/>
			</g>
			<g style="opacity:0.7;">
				<rect x="34.871" y="-11.216" style="opacity:0.8;fill:#B4B3B3;" width="0.255" height="123.492"/>
			</g>
			<g style="opacity:0.4;">
				<rect x="36.441" y="-2.877" style="fill:#B4B3B3;" width="0.153" height="110.224"/>
			</g>
			<g style="opacity:0.4;">
				<rect x="37.96" y="-2.877" style="fill:#B4B3B3;" width="0.153" height="110.224"/>
			</g>
			<g style="opacity:0.4;">
				<rect x="39.479" y="-2.877" style="fill:#B4B3B3;" width="0.153" height="110.224"/>
			</g>
			<g style="opacity:0.4;">
				<rect x="40.998" y="-2.877" style="fill:#B4B3B3;" width="0.153" height="110.224"/>
			</g>
			<g style="opacity:0.9;">
				<rect x="42.424" y="-6.279" style="fill:#B4B3B3;" width="0.34" height="118.555"/>
			</g>
			<g style="opacity:0.4;">
				<rect x="44.036" y="-2.877" style="fill:#B4B3B3;" width="0.153" height="110.224"/>
			</g>
			<g style="opacity:0.4;">
				<rect x="45.555" y="-2.877" style="fill:#B4B3B3;" width="0.153" height="110.224"/>
			</g>
			<g style="opacity:0.4;">
				<rect x="47.074" y="-2.877" style="fill:#B4B3B3;" width="0.153" height="110.224"/>
			</g>
			<g style="opacity:0.4;">
				<rect x="48.593" y="-2.877" style="fill:#B4B3B3;" width="0.153" height="110.224"/>
			</g>
			<g style="opacity:0.7;">
				<rect x="50.061" y="-11.216" style="opacity:0.8;fill:#B4B3B3;" width="0.255" height="123.492"/>
			</g>
			<g style="opacity:0.4;">
				<rect x="51.631" y="-2.877" style="fill:#B4B3B3;" width="0.153" height="110.224"/>
			</g>
			<g style="opacity:0.4;">
				<rect x="53.15" y="-2.877" style="fill:#B4B3B3;" width="0.153" height="110.224"/>
			</g>
			<g style="opacity:0.4;">
				<rect x="54.669" y="-2.877" style="fill:#B4B3B3;" width="0.153" height="110.224"/>
			</g>
			<g style="opacity:0.4;">
				<rect x="56.188" y="-2.877" style="fill:#B4B3B3;" width="0.153" height="110.224"/>
			</g>
			<g style="opacity:0.9;">
				<rect x="57.614" y="-6.279" style="fill:#B4B3B3;" width="0.34" height="118.555"/>
			</g>
			<g style="opacity:0.4;">
				<rect x="59.226" y="-2.877" style="fill:#B4B3B3;" width="0.153" height="110.224"/>
			</g>
			<g style="opacity:0.4;">
				<rect x="60.745" y="-2.877" style="fill:#B4B3B3;" width="0.153" height="110.224"/>
			</g>
			<g style="opacity:0.4;">
				<rect x="62.265" y="-2.877" style="fill:#B4B3B3;" width="0.153" height="110.224"/>
			</g>
			<g style="opacity:0.4;">
				<rect x="63.784" y="-2.877" style="fill:#B4B3B3;" width="0.153" height="110.224"/>
			</g>
			<g style="opacity:0.7;">
				<rect x="65.252" y="-11.216" style="opacity:0.8;fill:#B4B3B3;" width="0.255" height="123.492"/>
			</g>
			<g style="opacity:0.4;">
				<rect x="66.822" y="-2.877" style="fill:#B4B3B3;" width="0.153" height="110.224"/>
			</g>
			<g style="opacity:0.4;">
				<rect x="68.341" y="-2.877" style="fill:#B4B3B3;" width="0.153" height="110.224"/>
			</g>
			<g style="opacity:0.4;">
				<rect x="69.86" y="-2.877" style="fill:#B4B3B3;" width="0.153" height="110.224"/>
			</g>
			<g style="opacity:0.4;">
				<rect x="71.379" y="-2.877" style="fill:#B4B3B3;" width="0.153" height="110.224"/>
			</g>
			<g style="opacity:0.9;">
				<rect x="72.804" y="-6.279" style="fill:#B4B3B3;" width="0.34" height="118.555"/>
			</g>
			<g style="opacity:0.4;">
				<rect x="74.417" y="-2.877" style="fill:#B4B3B3;" width="0.153" height="110.224"/>
			</g>
			<g style="opacity:0.4;">
				<rect x="75.936" y="-2.877" style="fill:#B4B3B3;" width="0.153" height="110.224"/>
			</g>
			<g style="opacity:0.4;">
				<rect x="77.455" y="-2.877" style="fill:#B4B3B3;" width="0.153" height="110.224"/>
			</g>
			<g style="opacity:0.4;">
				<rect x="78.974" y="-2.877" style="fill:#B4B3B3;" width="0.153" height="110.224"/>
			</g>
			<g style="opacity:0.7;">
				<rect x="80.442" y="-11.216" style="opacity:0.8;fill:#B4B3B3;" width="0.255" height="123.492"/>
			</g>
			<g style="opacity:0.4;">
				<rect x="82.012" y="-2.877" style="fill:#B4B3B3;" width="0.153" height="110.224"/>
			</g>
			<g style="opacity:0.4;">
				<rect x="83.531" y="-2.877" style="fill:#B4B3B3;" width="0.153" height="110.224"/>
			</g>
			<g style="opacity:0.4;">
				<rect x="85.05" y="-2.877" style="fill:#B4B3B3;" width="0.153" height="110.224"/>
			</g>
			<g style="opacity:0.4;">
				<rect x="86.569" y="-2.877" style="fill:#B4B3B3;" width="0.153" height="110.224"/>
			</g>
			<g style="opacity:0.9;">
				<rect x="87.994" y="-6.279" style="fill:#B4B3B3;" width="0.34" height="118.555"/>
			</g>
			<g style="opacity:0.4;">
				<rect x="89.607" y="-2.877" style="fill:#B4B3B3;" width="0.153" height="110.224"/>
			</g>
			<g style="opacity:0.4;">
				<rect x="91.126" y="-2.877" style="fill:#B4B3B3;" width="0.153" height="110.224"/>
			</g>
			<g style="opacity:0.4;">
				<rect x="92.645" y="-2.877" style="fill:#B4B3B3;" width="0.153" height="110.224"/>
			</g>
			<g style="opacity:0.4;">
				<rect x="94.164" y="-2.877" style="fill:#B4B3B3;" width="0.153" height="110.224"/>
			</g>
			<g style="opacity:0.7;">
				<rect x="95.632" y="-11.216" style="opacity:0.8;fill:#B4B3B3;" width="0.255" height="123.492"/>
			</g>
			<g style="opacity:0.4;">
				<rect x="97.202" y="-2.877" style="fill:#B4B3B3;" width="0.153" height="110.224"/>
			</g>
			<g style="opacity:0.4;">
				<rect x="98.721" y="-2.877" style="fill:#B4B3B3;" width="0.153" height="110.224"/>
			</g>
			<g style="opacity:0.4;">
				<rect x="100.24" y="-2.877" style="fill:#B4B3B3;" width="0.153" height="110.224"/>
			</g>
			<g style="opacity:0.4;">
				<rect x="101.759" y="-2.877" style="fill:#B4B3B3;" width="0.153" height="110.224"/>
			</g>
			<g style="opacity:0.9;">
				<rect x="103.185" y="-6.279" style="fill:#B4B3B3;" width="0.34" height="118.555"/>
			</g>
			<g style="opacity:0.4;">
				<rect x="104.797" y="-2.877" style="fill:#B4B3B3;" width="0.153" height="110.224"/>
			</g>
			<g style="opacity:0.4;">
				<rect x="106.316" y="-2.877" style="fill:#B4B3B3;" width="0.153" height="110.224"/>
			</g>
			<g style="opacity:0.4;">
				<rect x="107.835" y="-2.877" style="fill:#B4B3B3;" width="0.153" height="110.224"/>
			</g>
			<g style="opacity:0.4;">
				<rect x="109.354" y="-2.877" style="fill:#B4B3B3;" width="0.153" height="110.224"/>
			</g>
			<g style="opacity:0.7;">
				<rect x="110.822" y="-11.216" style="opacity:0.8;fill:#B4B3B3;" width="0.255" height="123.492"/>
			</g>
			<g style="opacity:0.4;">
				<rect x="112.392" y="-2.877" style="fill:#B4B3B3;" width="0.153" height="110.224"/>
			</g>
			<g style="opacity:0.4;">
				<rect x="113.911" y="-2.877" style="fill:#B4B3B3;" width="0.153" height="110.224"/>
			</g>
			<g style="opacity:0.4;">
				<rect x="115.43" y="-2.877" style="fill:#B4B3B3;" width="0.153" height="110.224"/>
			</g>
			<g style="opacity:0.4;">
				<rect x="116.949" y="-2.877" style="fill:#B4B3B3;" width="0.153" height="110.224"/>
			</g>
			<g style="opacity:0.9;">
				<rect x="118.375" y="-6.279" style="fill:#B4B3B3;" width="0.34" height="118.555"/>
			</g>
			<g style="opacity:0.4;">
				<rect x="119.988" y="-2.877" style="fill:#B4B3B3;" width="0.153" height="110.224"/>
			</g>
			<g style="opacity:0.4;">
				<rect x="121.506" y="-2.877" style="fill:#B4B3B3;" width="0.153" height="110.224"/>
			</g>
			<g style="opacity:0.4;">
				<rect x="123.025" y="-2.877" style="fill:#B4B3B3;" width="0.153" height="110.224"/>
			</g>
			<g style="opacity:0.4;">
				<rect x="124.544" y="-2.877" style="fill:#B4B3B3;" width="0.153" height="110.224"/>
			</g>
			<g style="opacity:0.7;">
				<rect x="126.012" y="-11.216" style="opacity:0.8;fill:#B4B3B3;" width="0.255" height="123.492"/>
			</g>
			<g style="opacity:0.4;">
				<rect x="127.582" y="-2.877" style="fill:#B4B3B3;" width="0.153" height="110.224"/>
			</g>
			<g style="opacity:0.4;">
				<rect x="129.101" y="-2.877" style="fill:#B4B3B3;" width="0.153" height="110.224"/>
			</g>
			<g style="opacity:0.4;">
				<rect x="130.621" y="-2.877" style="fill:#B4B3B3;" width="0.153" height="110.224"/>
			</g>
			<g style="opacity:0.4;">
				<rect x="132.14" y="-2.877" style="fill:#B4B3B3;" width="0.153" height="110.224"/>
			</g>
			<g style="opacity:0.9;">
				<rect x="133.565" y="-6.279" style="fill:#B4B3B3;" width="0.34" height="118.555"/>
			</g>
			<g style="opacity:0.4;">
				<rect x="135.178" y="-2.877" style="fill:#B4B3B3;" width="0.153" height="110.224"/>
			</g>
			<g style="opacity:0.4;">
				<rect x="136.697" y="-2.877" style="fill:#B4B3B3;" width="0.153" height="110.224"/>
			</g>
			<g style="opacity:0.4;">
				<rect x="138.216" y="-2.877" style="fill:#B4B3B3;" width="0.153" height="110.224"/>
			</g>
			<g style="opacity:0.4;">
				<rect x="139.735" y="-2.877" style="fill:#B4B3B3;" width="0.153" height="110.224"/>
			</g>
			<g style="opacity:0.7;">
				<rect x="141.203" y="-11.216" style="opacity:0.8;fill:#B4B3B3;" width="0.255" height="123.492"/>
			</g>
			<g style="opacity:0.4;">
				<rect x="142.773" y="-2.877" style="fill:#B4B3B3;" width="0.153" height="110.224"/>
			</g>
			<g style="opacity:0.4;">
				<rect x="144.292" y="-2.877" style="fill:#B4B3B3;" width="0.153" height="110.224"/>
			</g>
			<g style="opacity:0.4;">
				<rect x="145.811" y="-2.877" style="fill:#B4B3B3;" width="0.153" height="110.224"/>
			</g>
			<g style="opacity:0.4;">
				<rect x="147.33" y="-2.877" style="fill:#B4B3B3;" width="0.153" height="110.224"/>
			</g>
			<g style="opacity:0.9;">
				<rect x="148.755" y="-6.279" style="fill:#B4B3B3;" width="0.34" height="118.555"/>
			</g>
			<g style="opacity:0.4;">
				<rect x="150.368" y="-2.877" style="fill:#B4B3B3;" width="0.153" height="110.224"/>
			</g>
			<g style="opacity:0.4;">
				<rect x="151.887" y="-2.877" style="fill:#B4B3B3;" width="0.153" height="110.224"/>
			</g>
			<g style="opacity:0.4;">
				<rect x="153.406" y="-2.877" style="fill:#B4B3B3;" width="0.153" height="110.224"/>
			</g>
			<g style="opacity:0.4;">
				<rect x="154.925" y="-2.877" style="fill:#B4B3B3;" width="0.153" height="110.224"/>
			</g>
			<g style="opacity:0.7;">
				<rect x="156.393" y="-11.216" style="opacity:0.8;fill:#B4B3B3;" width="0.255" height="123.492"/>
			</g>
			<g style="opacity:0.4;">
				<rect x="157.963" y="-2.877" style="fill:#B4B3B3;" width="0.153" height="110.224"/>
			</g>
			<g style="opacity:0.4;">
				<rect x="159.482" y="-2.877" style="fill:#B4B3B3;" width="0.153" height="110.224"/>
			</g>
			<g style="opacity:0.4;">
				<rect x="161.001" y="-2.877" style="fill:#B4B3B3;" width="0.153" height="110.224"/>
			</g>
			<g style="opacity:0.4;">
				<rect x="162.52" y="-2.877" style="fill:#B4B3B3;" width="0.153" height="110.224"/>
			</g>
			<g style="opacity:0.9;">
				<rect x="163.945" y="-6.279" style="fill:#B4B3B3;" width="0.34" height="118.555"/>
			</g>
			<g style="opacity:0.4;">
				<rect x="165.558" y="-2.877" style="fill:#B4B3B3;" width="0.153" height="110.224"/>
			</g>
			<g style="opacity:0.4;">
				<rect x="167.077" y="-2.877" style="fill:#B4B3B3;" width="0.153" height="110.224"/>
			</g>
			<g style="opacity:0.4;">
				<rect x="168.596" y="-2.877" style="fill:#B4B3B3;" width="0.153" height="110.224"/>
			</g>
			<g style="opacity:0.4;">
				<rect x="170.115" y="-2.877" style="fill:#B4B3B3;" width="0.153" height="110.224"/>
			</g>
			<g style="opacity:0.7;">
				<rect x="171.583" y="-11.216" style="opacity:0.8;fill:#B4B3B3;" width="0.255" height="123.492"/>
			</g>
			<g style="opacity:0.4;">
				<rect x="173.153" y="-2.877" style="fill:#B4B3B3;" width="0.153" height="110.224"/>
			</g>
			<g style="opacity:0.4;">
				<rect x="174.672" y="-2.877" style="fill:#B4B3B3;" width="0.153" height="110.224"/>
			</g>
			<g style="opacity:0.4;">
				<rect x="176.191" y="-2.877" style="fill:#B4B3B3;" width="0.153" height="110.224"/>
			</g>
			<g style="opacity:0.4;">
				<rect x="177.71" y="-2.877" style="fill:#B4B3B3;" width="0.153" height="110.224"/>
			</g>
			<g style="opacity:0.9;">
				<rect x="179.135" y="-6.279" style="fill:#B4B3B3;" width="0.34" height="118.555"/>
			</g>
			<g style="opacity:0.4;">
				<rect x="180.748" y="-2.877" style="fill:#B4B3B3;" width="0.153" height="110.224"/>
			</g>
			<g style="opacity:0.4;">
				<rect x="182.267" y="-2.877" style="fill:#B4B3B3;" width="0.153" height="110.224"/>
			</g>
			<g style="opacity:0.4;">
				<rect x="183.786" y="-2.877" style="fill:#B4B3B3;" width="0.153" height="110.224"/>
			</g>
			<g style="opacity:0.4;">
				<rect x="185.305" y="-2.877" style="fill:#B4B3B3;" width="0.153" height="110.224"/>
			</g>
			<g style="opacity:0.7;">
				<rect x="186.773" y="-11.216" style="opacity:0.8;fill:#B4B3B3;" width="0.255" height="123.492"/>
			</g>
			<g style="opacity:0.4;">
				<rect x="188.343" y="-2.877" style="fill:#B4B3B3;" width="0.153" height="110.224"/>
			</g>
			<g style="opacity:0.4;">
				<rect x="189.862" y="-2.877" style="fill:#B4B3B3;" width="0.153" height="110.224"/>
			</g>
			<g style="opacity:0.4;">
				<rect x="191.381" y="-2.877" style="fill:#B4B3B3;" width="0.153" height="110.224"/>
			</g>
			<g style="opacity:0.9;">
				<rect x="192.892" y="-6.279" style="fill:#B4B3B3;" width="0.17" height="118.555"/>
			</g>
			<g style="opacity:0.4;">
				<rect x="-2.977" y="-1.767" style="fill:#B4B3B3;" width="195.954" height="0.153"/>
			</g>
			<g style="opacity:0.9;">
				<rect x="-10.801" y="-0.341" style="fill:#B4B3B3;" width="209.902" height="0.34"/>
			</g>
			<g style="opacity:0.4;">
				<rect x="-2.977" y="1.271" style="fill:#B4B3B3;" width="195.954" height="0.153"/>
			</g>
			<g style="opacity:0.4;">
				<rect x="-2.977" y="2.79" style="fill:#B4B3B3;" width="195.954" height="0.153"/>
			</g>
			<g style="opacity:0.4;">
				<rect x="-2.977" y="4.309" style="fill:#B4B3B3;" width="195.954" height="0.153"/>
			</g>
			<g style="opacity:0.4;">
				<rect x="-2.977" y="5.828" style="fill:#B4B3B3;" width="195.954" height="0.153"/>
			</g>
			<g style="opacity:0.7;">
				<rect x="-26.11" y="7.296" style="opacity:0.8;fill:#B4B3B3;" width="225.211" height="0.255"/>
			</g>
			<g style="opacity:0.4;">
				<rect x="-2.977" y="8.866" style="fill:#B4B3B3;" width="195.954" height="0.153"/>
			</g>
			<g style="opacity:0.4;">
				<rect x="-2.977" y="10.385" style="fill:#B4B3B3;" width="195.954" height="0.153"/>
			</g>
			<g style="opacity:0.4;">
				<rect x="-2.977" y="11.904" style="fill:#B4B3B3;" width="195.954" height="0.153"/>
			</g>
			<g style="opacity:0.4;">
				<rect x="-2.977" y="13.423" style="fill:#B4B3B3;" width="195.954" height="0.153"/>
			</g>
			<g style="opacity:0.9;">
				<rect x="-10.801" y="14.849" style="fill:#B4B3B3;" width="209.902" height="0.34"/>
			</g>
			<g style="opacity:0.4;">
				<rect x="-2.977" y="16.461" style="fill:#B4B3B3;" width="195.954" height="0.153"/>
			</g>
			<g style="opacity:0.4;">
				<rect x="-2.977" y="17.98" style="fill:#B4B3B3;" width="195.954" height="0.153"/>
			</g>
			<g style="opacity:0.4;">
				<rect x="-2.977" y="19.499" style="fill:#B4B3B3;" width="195.954" height="0.153"/>
			</g>
			<g style="opacity:0.4;">
				<rect x="-2.977" y="21.018" style="fill:#B4B3B3;" width="195.954" height="0.153"/>
			</g>
			<g style="opacity:0.7;">
				<rect x="-26.11" y="22.486" style="opacity:0.8;fill:#B4B3B3;" width="225.211" height="0.255"/>
			</g>
			<g style="opacity:0.4;">
				<rect x="-2.977" y="24.056" style="fill:#B4B3B3;" width="195.954" height="0.153"/>
			</g>
			<g style="opacity:0.4;">
				<rect x="-2.977" y="25.575" style="fill:#B4B3B3;" width="195.954" height="0.153"/>
			</g>
			<g style="opacity:0.4;">
				<rect x="-2.977" y="27.094" style="fill:#B4B3B3;" width="195.954" height="0.153"/>
			</g>
			<g style="opacity:0.4;">
				<rect x="-2.977" y="28.613" style="fill:#B4B3B3;" width="195.954" height="0.153"/>
			</g>
			<g style="opacity:0.9;">
				<rect x="-10.801" y="30.039" style="fill:#B4B3B3;" width="209.902" height="0.34"/>
			</g>
			<g style="opacity:0.4;">
				<rect x="-2.977" y="31.651" style="fill:#B4B3B3;" width="195.954" height="0.153"/>
			</g>
			<g style="opacity:0.4;">
				<rect x="-2.977" y="33.171" style="fill:#B4B3B3;" width="195.954" height="0.153"/>
			</g>
			<g style="opacity:0.4;">
				<rect x="-2.977" y="34.689" style="fill:#B4B3B3;" width="195.954" height="0.153"/>
			</g>
			<g style="opacity:0.4;">
				<rect x="-2.977" y="36.209" style="fill:#B4B3B3;" width="195.954" height="0.153"/>
			</g>
			<g style="opacity:0.7;">
				<rect x="-26.11" y="37.677" style="opacity:0.8;fill:#B4B3B3;" width="225.211" height="0.255"/>
			</g>
			<g style="opacity:0.4;">
				<rect x="-2.977" y="39.247" style="fill:#B4B3B3;" width="195.954" height="0.153"/>
			</g>
			<g style="opacity:0.4;">
				<rect x="-2.977" y="40.766" style="fill:#B4B3B3;" width="195.954" height="0.153"/>
			</g>
			<g style="opacity:0.4;">
				<rect x="-2.977" y="42.285" style="fill:#B4B3B3;" width="195.954" height="0.153"/>
			</g>
			<g style="opacity:0.4;">
				<rect x="-2.977" y="43.804" style="fill:#B4B3B3;" width="195.954" height="0.153"/>
			</g>
			<g style="opacity:0.9;">
				<rect x="-10.801" y="45.229" style="fill:#B4B3B3;" width="209.902" height="0.34"/>
			</g>
			<g style="opacity:0.4;">
				<rect x="-2.977" y="46.842" style="fill:#B4B3B3;" width="195.954" height="0.153"/>
			</g>
			<g style="opacity:0.4;">
				<rect x="-2.977" y="48.361" style="fill:#B4B3B3;" width="195.954" height="0.153"/>
			</g>
			<g style="opacity:0.4;">
				<rect x="-2.977" y="49.88" style="fill:#B4B3B3;" width="195.954" height="0.153"/>
			</g>
			<g style="opacity:0.4;">
				<rect x="-2.977" y="51.399" style="fill:#B4B3B3;" width="195.954" height="0.153"/>
			</g>
			<g style="opacity:0.7;">
				<rect x="-26.11" y="52.867" style="opacity:0.8;fill:#B4B3B3;" width="225.211" height="0.255"/>
			</g>
			<g style="opacity:0.4;">
				<rect x="-2.977" y="54.437" style="fill:#B4B3B3;" width="195.954" height="0.153"/>
			</g>
			<g style="opacity:0.4;">
				<rect x="-2.977" y="55.956" style="fill:#B4B3B3;" width="195.954" height="0.153"/>
			</g>
			<g style="opacity:0.4;">
				<rect x="-2.977" y="57.475" style="fill:#B4B3B3;" width="195.954" height="0.153"/>
			</g>
			<g style="opacity:0.4;">
				<rect x="-2.977" y="58.994" style="fill:#B4B3B3;" width="195.954" height="0.153"/>
			</g>
			<g style="opacity:0.9;">
				<rect x="-10.801" y="60.419" style="fill:#B4B3B3;" width="209.902" height="0.34"/>
			</g>
			<g style="opacity:0.4;">
				<rect x="-2.977" y="62.032" style="fill:#B4B3B3;" width="195.954" height="0.153"/>
			</g>
			<g style="opacity:0.4;">
				<rect x="-2.977" y="63.551" style="fill:#B4B3B3;" width="195.954" height="0.153"/>
			</g>
			<g style="opacity:0.4;">
				<rect x="-2.977" y="65.07" style="fill:#B4B3B3;" width="195.954" height="0.153"/>
			</g>
			<g style="opacity:0.4;">
				<rect x="-2.977" y="66.589" style="fill:#B4B3B3;" width="195.954" height="0.153"/>
			</g>
			<g style="opacity:0.7;">
				<rect x="-26.11" y="68.057" style="opacity:0.8;fill:#B4B3B3;" width="225.211" height="0.255"/>
			</g>
			<g style="opacity:0.4;">
				<rect x="-2.977" y="69.627" style="fill:#B4B3B3;" width="195.954" height="0.153"/>
			</g>
			<g style="opacity:0.4;">
				<rect x="-2.977" y="71.146" style="fill:#B4B3B3;" width="195.954" height="0.153"/>
			</g>
			<g style="opacity:0.4;">
				<rect x="-2.977" y="72.665" style="fill:#B4B3B3;" width="195.954" height="0.153"/>
			</g>
			<g style="opacity:0.4;">
				<rect x="-2.977" y="74.184" style="fill:#B4B3B3;" width="195.954" height="0.153"/>
			</g>
			<g style="opacity:0.9;">
				<rect x="-10.801" y="75.609" style="fill:#B4B3B3;" width="209.902" height="0.34"/>
			</g>
			<g style="opacity:0.4;">
				<rect x="-2.977" y="77.222" style="fill:#B4B3B3;" width="195.954" height="0.153"/>
			</g>
			<g style="opacity:0.4;">
				<rect x="-2.977" y="78.741" style="fill:#B4B3B3;" width="195.954" height="0.153"/>
			</g>
			<g style="opacity:0.4;">
				<rect x="-2.977" y="80.26" style="fill:#B4B3B3;" width="195.954" height="0.153"/>
			</g>
			<g style="opacity:0.4;">
				<rect x="-2.977" y="81.779" style="fill:#B4B3B3;" width="195.954" height="0.153"/>
			</g>
			<g style="opacity:0.7;">
				<rect x="-26.11" y="83.247" style="opacity:0.8;fill:#B4B3B3;" width="225.211" height="0.255"/>
			</g>
			<g style="opacity:0.4;">
				<rect x="-2.977" y="84.817" style="fill:#B4B3B3;" width="195.954" height="0.153"/>
			</g>
			<g style="opacity:0.4;">
				<rect x="-2.977" y="86.336" style="fill:#B4B3B3;" width="195.954" height="0.153"/>
			</g>
			<g style="opacity:0.4;">
				<rect x="-2.977" y="87.855" style="fill:#B4B3B3;" width="195.954" height="0.153"/>
			</g>
			<g style="opacity:0.4;">
				<rect x="-2.977" y="89.374" style="fill:#B4B3B3;" width="195.954" height="0.153"/>
			</g>
			<g style="opacity:0.9;">
				<rect x="-10.801" y="90.8" style="fill:#B4B3B3;" width="209.902" height="0.34"/>
			</g>
			<g style="opacity:0.4;">
				<rect x="-2.977" y="92.412" style="fill:#B4B3B3;" width="195.954" height="0.153"/>
			</g>
			<g style="opacity:0.4;">
				<rect x="-2.977" y="93.932" style="fill:#B4B3B3;" width="195.954" height="0.153"/>
			</g>
			<g style="opacity:0.4;">
				<rect x="-2.977" y="95.45" style="fill:#B4B3B3;" width="195.954" height="0.153"/>
			</g>
			<g style="opacity:0.4;">
				<rect x="-2.977" y="96.969" style="fill:#B4B3B3;" width="195.954" height="0.153"/>
			</g>
			<g style="opacity:0.7;">
				<rect x="-26.11" y="98.437" style="opacity:0.8;fill:#B4B3B3;" width="225.211" height="0.255"/>
			</g>
			<g style="opacity:0.4;">
				<rect x="-2.977" y="100.008" style="fill:#B4B3B3;" width="195.954" height="0.153"/>
			</g>
			<g style="opacity:0.4;">
				<rect x="-2.977" y="101.526" style="fill:#B4B3B3;" width="195.954" height="0.153"/>
			</g>
			<g style="opacity:0.4;">
				<rect x="-2.977" y="103.045" style="fill:#B4B3B3;" width="195.954" height="0.153"/>
			</g>
			<g style="opacity:0.4;">
				<rect x="-2.977" y="104.565" style="fill:#B4B3B3;" width="195.954" height="0.153"/>
			</g>
			<g style="opacity:0.9;">
				<rect x="-10.801" y="105.99" style="fill:#B4B3B3;" width="209.902" height="0.34"/>
			</g>
			<g style="opacity:0.4;">
				<rect x="-2.977" y="107.603" style="fill:#B4B3B3;" width="195.954" height="0.153"/>
			</g>
			<g>
				<path style="fill:#B4B3B3;" d="M189.991,104.791H0.009V0.011h189.981V104.791z M0.69,104.111H189.31V0.691H0.69V104.111z"/>
			</g>
			<g style="opacity:0.4;">
				<rect x="-0.015" y="-2.877" style="fill:#B4B3B3;" width="0.153" height="110.224"/>
			</g>
		</g>
	</g>
</g>
<g>
	<g>
		<g>
			<path style="fill:#756340;" d="M48.118,83.903h-0.003c-0.032-0.004-0.054,0-0.076,0.002c-0.01,0.003-0.016,0.004-0.031,0.004
				c-0.107,0-0.118-0.004-0.206-0.097l-1.513-1.789l1.276-1.382c0.191-0.21,0.427-0.496,0.535-0.84
				c0.024-0.083,0.002-0.141-0.022-0.171c-0.038-0.055-0.105-0.088-0.191-0.093l-0.61-0.036c-0.19-0.02-0.255,0.081-0.3,0.175
				l-0.017,0.039c-0.138,0.325-0.16,0.375-0.315,0.562l-1.393,1.691v-2.168c0-0.157-0.117-0.271-0.283-0.271h-0.585
				c-0.168,0-0.284,0.113-0.284,0.271v4.7c0,0.157,0.117,0.268,0.284,0.268h0.585c0.166,0,0.283-0.111,0.283-0.268v-2.112
				l1.53,1.981c0.191,0.252,0.424,0.485,0.837,0.485c0.258,0,0.324-0.027,0.419-0.067l0.018-0.006
				c0.161-0.053,0.251-0.155,0.251-0.279l-0.021-0.425C48.276,83.969,48.209,83.903,48.118,83.903"/>
			<path style="fill:#756340;" d="M52.228,79.466c-1.554,0-2.444,0.99-2.444,2.72c0,1.725,0.891,2.715,2.444,2.715
				c1.582,0,2.451-0.965,2.451-2.715C54.679,80.457,53.786,79.466,52.228,79.466 M52.228,84.07c-1.041,0-1.222-0.607-1.222-1.884
				c0-1.442,0.286-1.88,1.222-1.88c0.942,0,1.23,0.438,1.23,1.88C53.458,83.463,53.275,84.07,52.228,84.07"/>
			<path style="fill:#756340;" d="M60.715,83.908c-0.028,0-0.051,0.005-0.077,0.011c-0.016,0.001-0.032,0.004-0.049,0.004
				c-0.106,0-0.117,0-0.188-0.102l-1.011-1.364c0.88-0.162,1.309-0.644,1.309-1.466c0-0.983-0.63-1.463-1.923-1.463h-1.542
				c-0.265,0-0.457,0.184-0.457,0.439v4.531c0,0.16,0.118,0.268,0.282,0.268h0.593c0.166,0,0.276-0.106,0.276-0.268v-4.172h0.658
				c0.682,0,0.889,0.195,0.889,0.831c0,0.636-0.237,0.861-0.903,0.861l-0.485-0.025v0.325l1.341,2.052
				c0.223,0.344,0.464,0.487,0.805,0.487c0.264,0,0.332-0.027,0.428-0.064l0.015-0.009c0.174-0.058,0.266-0.16,0.25-0.279
				l-0.042-0.424C60.878,83.985,60.817,83.921,60.715,83.908"/>
			<path style="fill:#756340;" d="M66.219,83.908H64.11V82.43h1.32c0.168,0,0.285-0.109,0.285-0.268v-0.321
				c0-0.161-0.114-0.271-0.285-0.271h-1.32v-1.177h2.032c0.169,0,0.283-0.106,0.283-0.268v-0.32c0-0.163-0.113-0.276-0.283-0.276
				h-2.721c-0.265,0-0.457,0.184-0.457,0.439v4.363c0,0.255,0.193,0.437,0.457,0.437h2.797c0.166,0,0.283-0.108,0.283-0.268v-0.321
				C66.502,84.012,66.394,83.908,66.219,83.908"/>
			<path style="fill:#756340;" d="M71.199,79.86c-0.093-0.221-0.24-0.331-0.447-0.331h-0.586c-0.207,0-0.364,0.115-0.453,0.331
				c-0.014,0.035-1.384,3.42-1.64,4.082c-0.092,0.231-0.162,0.537-0.169,0.593c-0.017,0.082,0.009,0.134,0.031,0.165
				c0.027,0.03,0.078,0.068,0.172,0.068l0,0l0.618,0.029c0.112,0,0.195-0.067,0.224-0.184c0.006-0.02,0.016-0.058,0.024-0.102
				c0.021-0.099,0.056-0.243,0.099-0.354l0.257-0.721h2.135l0.265,0.731c0.034,0.081,0.054,0.176,0.075,0.268
				c0.015,0.057,0.024,0.114,0.043,0.17c0.035,0.137,0.115,0.2,0.253,0.2H72.1l0.715-0.028c0.073,0,0.137-0.028,0.175-0.073
				c0.033-0.041,0.047-0.092,0.038-0.142c-0.028-0.192-0.097-0.448-0.171-0.619L71.199,79.86z M71.166,82.605h-1.533l0.665-1.701
				c0.053-0.126,0.078-0.291,0.095-0.409c0.013,0.118,0.039,0.283,0.088,0.406L71.166,82.605z"/>
			<path style="fill:#756340;" d="M79.03,79.537h-0.48c-0.165,0-0.276,0.107-0.276,0.268l0.029,2.876
				c0.004,0.382,0.094,0.831,0.132,1.004h-0.01c-0.053-0.14-0.233-0.617-0.365-0.853l-1.674-3.006
				c-0.134-0.243-0.286-0.289-0.555-0.289h-0.578c-0.174,0-0.381,0.07-0.381,0.403v4.56c0,0.162,0.111,0.268,0.276,0.268h0.48
				c0.166,0,0.277-0.106,0.277-0.268l-0.028-2.874c-0.006-0.381-0.096-0.832-0.131-1.006h0.008c0.053,0.142,0.234,0.617,0.367,0.855
				l1.673,3.005c0.134,0.245,0.287,0.288,0.555,0.288h0.579c0.175,0,0.381-0.068,0.381-0.402v-4.56
				C79.306,79.644,79.197,79.537,79.03,79.537"/>
			<path style="fill:#756340;" d="M87.548,79.529h-2.72c-0.266,0-0.459,0.184-0.459,0.439v4.531c0,0.162,0.11,0.268,0.276,0.268
				h0.594c0.164,0,0.276-0.106,0.276-0.268v-1.921h1.32c0.167,0,0.284-0.112,0.284-0.268v-0.321c0-0.162-0.115-0.271-0.284-0.271
				h-1.32v-1.325h2.032c0.168,0,0.283-0.106,0.283-0.268v-0.32C87.831,79.642,87.716,79.529,87.548,79.529"/>
			<path style="fill:#756340;" d="M91.608,79.466c-1.555,0-2.445,0.99-2.445,2.72c0,1.725,0.89,2.715,2.445,2.715
				c1.581,0,2.451-0.965,2.451-2.715C94.059,80.457,93.165,79.466,91.608,79.466 M91.608,84.07c-1.041,0-1.226-0.607-1.226-1.884
				c0-1.442,0.288-1.88,1.226-1.88c0.942,0,1.229,0.438,1.229,1.88C92.837,83.463,92.652,84.07,91.608,84.07"/>
			<path style="fill:#756340;" d="M99.258,83.903h-1.949v-4.103c0-0.157-0.115-0.271-0.282-0.271h-0.587
				c-0.164,0-0.282,0.113-0.282,0.271v4.531c0,0.289,0.231,0.437,0.457,0.437h2.643c0.166,0,0.282-0.111,0.282-0.268v-0.321
				C99.54,84.014,99.427,83.903,99.258,83.903"/>
			<path style="fill:#756340;" d="M105.287,83.903L105.287,83.903c-0.033-0.004-0.056,0-0.078,0.002
				c-0.008,0.003-0.018,0.004-0.03,0.004c-0.107,0-0.121-0.006-0.205-0.097l-1.514-1.789l1.276-1.382
				c0.193-0.21,0.427-0.496,0.536-0.84c0.023-0.086,0-0.141-0.025-0.171c-0.036-0.055-0.104-0.088-0.19-0.093l-0.61-0.036
				c-0.187-0.02-0.252,0.081-0.299,0.175l-0.02,0.042c-0.133,0.314-0.159,0.372-0.312,0.559l-1.394,1.691v-2.168
				c0-0.157-0.118-0.271-0.284-0.271h-0.585c-0.167,0-0.285,0.113-0.285,0.271v4.7c0,0.157,0.118,0.268,0.285,0.268h0.585
				c0.166,0,0.284-0.111,0.284-0.268v-2.112l1.53,1.981c0.181,0.239,0.423,0.485,0.836,0.485c0.258,0,0.324-0.027,0.419-0.067
				l0.018-0.006c0.16-0.053,0.25-0.155,0.25-0.279l-0.022-0.425C105.445,83.969,105.379,83.903,105.287,83.903"/>
			<path style="fill:#756340;" d="M114.132,79.553l-0.586-0.038l-0.023-0.001c-0.169,0-0.215,0.11-0.24,0.229
				c-0.017,0.057-0.027,0.12-0.038,0.182c-0.013,0.083-0.026,0.171-0.055,0.253l-1.017,3.229c-0.038,0.123-0.06,0.276-0.073,0.393
				c-0.009-0.117-0.028-0.271-0.071-0.393l-1.019-3.239c-0.033-0.092-0.052-0.184-0.069-0.27c-0.01-0.057-0.02-0.106-0.033-0.157
				c-0.03-0.109-0.078-0.226-0.242-0.226l-0.72,0.039c-0.078,0.001-0.141,0.03-0.18,0.081c-0.023,0.03-0.052,0.09-0.034,0.174
				c0.016,0.094,0.073,0.407,0.141,0.602l1.437,4.016c0.075,0.212,0.255,0.341,0.468,0.341h0.555c0.221,0,0.409-0.134,0.483-0.341
				l1.387-4.016c0.076-0.215,0.117-0.456,0.14-0.582l0.004-0.02c0.014-0.079-0.01-0.132-0.034-0.164
				C114.28,79.594,114.216,79.56,114.132,79.553"/>
			<path style="fill:#756340;" d="M117.183,79.529h-0.578c-0.165,0-0.276,0.11-0.276,0.271v4.7c0,0.162,0.111,0.268,0.276,0.268
				h0.578c0.168,0,0.284-0.108,0.284-0.268v-4.7C117.466,79.642,117.35,79.529,117.183,79.529"/>
			<path style="fill:#756340;" d="M122.943,83.903h-1.949v-4.103c0-0.157-0.117-0.271-0.283-0.271h-0.585
				c-0.166,0-0.283,0.113-0.283,0.271v4.531c0,0.289,0.229,0.437,0.456,0.437h2.644c0.166,0,0.282-0.111,0.282-0.268v-0.321
				C123.225,84.017,123.109,83.903,122.943,83.903"/>
			<path style="fill:#756340;" d="M128.055,83.903h-1.948v-4.103c0-0.157-0.116-0.271-0.282-0.271h-0.586
				c-0.167,0-0.283,0.113-0.283,0.271v4.531c0,0.289,0.229,0.437,0.458,0.437h2.641c0.168,0,0.285-0.111,0.285-0.268v-0.321
				C128.34,84.014,128.224,83.903,128.055,83.903"/>
			<path style="fill:#756340;" d="M132.871,79.86c-0.089-0.221-0.236-0.331-0.444-0.331h-0.584c-0.208,0-0.365,0.115-0.454,0.331
				c-0.014,0.035-1.384,3.42-1.639,4.082c-0.091,0.232-0.164,0.537-0.171,0.593c-0.017,0.082,0.009,0.134,0.033,0.165
				c0.026,0.03,0.074,0.068,0.17,0.068l0,0l0.618,0.029c0.114,0,0.195-0.067,0.223-0.184c0.006-0.02,0.016-0.06,0.025-0.106
				c0.025-0.102,0.057-0.239,0.101-0.35l0.257-0.721h2.134l0.265,0.731c0.033,0.081,0.054,0.176,0.073,0.265
				c0.014,0.061,0.028,0.118,0.043,0.173c0.036,0.137,0.115,0.2,0.253,0.2l0,0l0.717-0.028c0.07,0,0.136-0.028,0.175-0.073
				c0.033-0.041,0.049-0.092,0.039-0.142c-0.029-0.192-0.098-0.448-0.173-0.619L132.871,79.86z M132.842,82.605h-1.533l0.667-1.701
				c0.051-0.126,0.079-0.289,0.092-0.409c0.014,0.12,0.041,0.282,0.089,0.405L132.842,82.605z"/>
			<path style="fill:#756340;" d="M140.402,81.914c-0.01,0-0.022,0-0.033,0l-0.731,0.05c-0.074,0.009-0.129,0.038-0.159,0.095
				c-0.025,0.045-0.033,0.103-0.023,0.184c0.009,0.067,0.021,0.126,0.03,0.181c0.028,0.157,0.051,0.279,0.051,0.507v1.135
				c-0.104,0.02-0.358,0.067-0.567,0.067c-1.274-0.006-1.516-0.677-1.516-1.915c0-1.271,0.239-1.881,1.606-1.881
				c0.393,0,0.864,0.112,1.173,0.208c0.047,0.017,0.091,0.026,0.131,0.026c0.065,0,0.178-0.026,0.211-0.197l0.065-0.342
				c0.025-0.149,0.032-0.277-0.174-0.355c-0.356-0.118-0.879-0.198-1.302-0.198c-1.886,0-2.926,0.958-2.926,2.692
				c0,1.748,0.967,2.709,2.722,2.709c0.377,0,0.789-0.057,1.077-0.15c0.482-0.137,0.651-0.286,0.651-0.83v-0.998
				c0-0.284-0.013-0.436-0.042-0.694C140.631,82.093,140.607,81.914,140.402,81.914"/>
			<path style="fill:#756340;" d="M146.217,83.908h-2.109V82.43h1.321c0.165,0,0.282-0.109,0.282-0.268v-0.321
				c0-0.161-0.111-0.271-0.282-0.271h-1.321v-1.177h2.031c0.17,0,0.284-0.106,0.284-0.268v-0.32c0-0.163-0.115-0.276-0.284-0.276
				h-2.719c-0.265,0-0.458,0.184-0.458,0.439v4.363c0,0.255,0.193,0.437,0.458,0.437h2.796c0.168,0,0.284-0.108,0.284-0.268v-0.321
				C146.5,84.012,146.391,83.908,146.217,83.908"/>
		</g>
		<path style="fill:#756340;" d="M61.87,63.253c-0.126,0.661-0.418,0.856-0.925,0.885c-0.516,0.041-1.057-0.029-1.567-0.195
			c-0.517-0.16-0.77,0.065-0.742,0.422c0.041,0.364,0.057,0.495-0.099,0.82c-0.161,0.326,0.07,0.884-0.055,1.21
			c-0.135,0.323-0.064,0.522-0.106,0.982c-0.029,0.463,0,0.624-0.087,0.982c-0.102,0.359,0,0.816-0.448,0.854
			c-0.454,0.03-0.932,0.097-1.219,0.162c-0.29,0.063-0.548-0.335-0.604-0.624c-0.07-0.292,0.185-1.017,0.185-1.207
			c0-0.201,0.195-0.948,0.261-1.273c0.057-0.332,0.345-1.184,0.219-1.448c-0.122-0.264-0.162-1.209-0.317-1.503
			c-0.163-0.298,0.155-0.758,0.221-0.953c0.066-0.197,0-0.654,0.096-0.945c0.095-0.302,0-0.628-0.122-0.755
			c-0.135-0.131-0.358-0.817-0.295-1.154c0.066-0.32-0.248-0.781-0.162-1.171c0.1-0.399,0.041-0.855,0.162-1.117
			c0,0,0.295-0.361,0.577-0.485c0.288-0.139,0.669-0.2,0.997,0.353c0.316,0.56,0.414,1.15,0.506,1.578
			c0.099,0.419,0.071,1.144,0.029,1.737c-0.029,0.587,0.134,1.246,0.704,1.246c0.577,0,1.666-0.165,2.084,0.261
			C61.585,62.339,62.001,62.596,61.87,63.253 M58.256,71.975c-0.259-0.129-0.227,0.07-0.672-0.064
			c-0.451-0.131-1.54,0.03-1.886,0.03c-0.36,0-0.738,0-0.931-0.063c-0.186-0.067-3.451-0.067-4.129,0
			c-0.669,0.063-2.331,0.166-2.941,0.097c-0.61-0.064-0.896,0.623-1.088-0.528c-0.192-1.145-0.356-1.636-0.482-1.958
			c-0.13-0.332-0.76-0.464-1.336-0.332c-0.58,0.13-0.841,0.586-0.841,0.586c-0.157,0.753-0.478,0.919-0.034,1.544
			c0.45,0.624,0.102,0.758-0.057,1.08c-0.158,0.325-0.61,1.087-0.672,1.31c-0.063,0.234-0.063,1.181,0.374,1.509
			c0.456,0.332,1.41,0.129,1.703-0.16c0.285-0.3,0.862-0.464,1.407-0.533c0.543-0.063,0.576,0.037,1.248-0.094
			c0.669-0.133,0.928,0.163,1.596-0.038c0.679-0.197,0.74,0.2,1.599,0c0.871-0.197,0.899,0.131,1.543-0.031
			c0.636-0.166,1.214,0.128,1.599,0.099c0.38-0.03,0.668,0.2,1.278,0.265c0.611,0.057,1.656,0.254,2.075,0.128
			c0.418-0.128,0.577-0.128,1.122-0.261c0.545-0.132,0.669-0.421,0.701-0.885c0.04-0.458-0.056-1.079-0.189-1.344
			C59.116,72.068,58.511,72.103,58.256,71.975 M82.243,62.268c-0.282-0.036-1.048-0.23-1.179-0.334
			c-0.125-0.093-0.255-0.358,0.254-0.554c0.517-0.196,0.989-0.879,0.832-1.403c-0.16-0.527-0.475-2.356-1.921-2.885
			c-1.436-0.517-1.63-0.263-2.171-0.124c-0.544,0.124-2.592-0.229-3.295,0c-0.703,0.22-1.185-0.327-2.106-0.262
			c-0.932,0.057-1.474-0.065-1.926,0.094c-0.451,0.168-1.246,0.193-1.884,0.168c-0.648-0.035-1.185,0-1.892,0.191
			c-0.703,0.194-1.597,0.1-1.89,0.327c0,0-0.985,0.818-0.572,1.471c0.42,0.659,0.93,0.329,1.471,0.261
			c0.545-0.061,1.119,0.169,1.635,0.203c0.51,0.029,1.022-0.164,1.407-0.135c0.383,0.035,0.77,0,0.865-0.094
			c0.088-0.102,1.086,0.094,1.342,0.094c0.254,0,0.443-0.094,1.023,0.035c0.578,0.129,0.861-0.129,1.121-0.064
			c0.258,0.064,0.958,0.064,1.473,0.064c0.509,0,0.761,0.295,1.148,0.129c0.381-0.164,0.862-0.164,1.281-0.091
			c0.416,0.062,1.148,0.091,1.308,0.456c0.167,0.357,0.257,0.914,0.579,0.914c0.316,0,0.096,0.588,0.096,0.72
			c0,0.128,0,0.528-0.581,0.528c-0.573,0-1.02,0.094-1.276,0.062c-0.254-0.035-1.12-0.263-1.376-0.062
			c-0.255,0.192-0.153-0.202-1.38-0.135c-1.208,0.073-1.722-0.099-1.972-0.199c-0.26-0.094-1.255-0.194-2.273,0.039
			c-1.029,0.232-1.093-0.069-1.408-0.069c-0.323,0-1.378,0.194-1.919,0.229c-0.548,0.028-1.446,0.197-1.993,0.229
			c-0.539,0.034-1.148,0.427-1.183,0.658c-0.025,0.222-0.375,1.472,0.611,1.634c0.993,0.159,1.471-0.126,1.85-0.126
			c0.396,0,0.77,0.094,1.286,0.026c0.516-0.062,1.09,0.164,1.472-0.062c0.384-0.229,1.117-0.099,1.435,0.036
			c0.325,0.126,1.119-0.036,1.349,0.488c0.223,0.525,0.512,1.473,0.478,1.703c-0.031,0.225,0.353,1.012,0.96,0.826
			c0.609-0.205,0.834-0.337,1.087-0.433c0.258-0.102,0.543-0.917,0.481-1.208c-0.062-0.298,0.35-1.12,0.509-1.213
			c0.159-0.1,0.455-0.036,0.899-0.036c0.446,0,1.244-0.1,1.696,0.036c0.443,0.123,1.087-0.068,1.371-0.136
			c0.287-0.062,0.322,0.201,0.862,0.136c0.546-0.068,0.899-0.068,1.189-0.068c0.283,0,0.927,0.361,0.992-0.588
			c0.061-0.951,0.161-0.459,0.322-0.657C82.887,62.892,82.538,62.297,82.243,62.268 M81.639,70.672c0-0.263-0.322-0.522-0.383-0.848
			c-0.061-0.327-0.638-0.793-0.899-0.887c-0.251-0.093-0.83-0.49-1.25-0.387c-0.415,0.097-0.541-0.43-1.404-0.168
			c-0.864,0.266-1.307-0.131-1.884,0.033c-0.578,0.166-1.467,0.07-1.662-0.163c-0.194-0.23-0.509-0.067-0.773-0.166
			c-0.256-0.097-0.763-0.43-1.408-0.324c-0.632,0.096-1.404,0.195-1.942,0.195c-0.549,0-0.611,0.102-1.058,0.102
			c-0.452,0-2.34,0.091-2.824,0.356c0,0-1.659,0.523-1.918,0.46c-0.252-0.066-1.023,1.011-0.728,1.341
			c0.279,0.326,0.765,0.755,2.39,0.493c1.635-0.26,2.406-0.363,3.109-0.363c0.702,0,1.276-0.157,1.726-0.095
			c0.452,0.064,1.376-0.163,1.6-0.035c0.219,0.13,0.992,0.194,1.537,0.099c0.542-0.099,0.858,0.096,1.305,0.134
			c0.452,0.026,1.185,0,1.415-0.168c0.22-0.156,0.796,0.233,1.207,0.297c0.421,0.07,0.804,0.23,0.865,0.524
			c0.073,0.288,0.133,1.344,0,1.564c-0.124,0.233-0.153,0.595,0,1.051c0.163,0.456-0.028,0.884,0.258,1.173
			c0.291,0.302,0.189,0.43,0.644,0.464c0.453,0.033,1.149-0.559,1.567-0.522c0.414,0.028,0.706-0.889,0.672-1.345
			c-0.031-0.456,0.035-0.82-0.16-1.337C81.448,71.618,81.639,70.935,81.639,70.672 M103.705,64.791
			c0.133-1.18-0.152-1.707-0.023-2.722c0.131-1.012-0.287-1.374-0.382-1.77c-0.097-0.393-0.189-0.936-0.068-1.334
			c0.128-0.392-0.122-0.586-0.197-0.85c-0.058-0.266,0-1.571-1.437-1.438c0,0-0.507,0.39-0.603,1.469
			c-0.102,1.088-0.258,1.088-0.197,1.511c0.068,0.429,0.224,1.166,0.294,1.426c0.054,0.267,0.152,1.056,0.189,1.344
			c0.029,0.3-0.414,0.592-0.316,0.985c0.096,0.397,0,1.05,0.182,1.408c0.198,0.364-0.054,0.92,0,1.505
			c0.073,0.591-0.768,1.543,0.452,1.707c1.215,0.161,1.923,0.26,2.278-0.854C104.222,66.068,103.587,65.966,103.705,64.791
			 M102.259,72.57c-0.232-0.23-0.719-0.609-0.971-0.47c-0.254,0.128-0.837,0.105-1.862,0.004c-1.029-0.104-0.557,0.175-1.212,0.028
			c-0.805-0.178-1.06-0.032-1.441-0.097c-0.39-0.059-0.999-0.267-1.119-0.107c-0.13,0.172-0.618-0.116-1.666,0.077
			c-1.055,0.191-1.382-0.166-3.129,0.168c-1.754,0.335-1.486-0.255-1.651-0.58c-0.169-0.325,0.099-1.94-0.531-2.77
			c-0.629-0.848-1.412-0.065-1.412-0.065c-0.127-0.034-0.6,0.272-0.682,0.733c-0.094,0.461,0.251,1.725,0.237,2.319
			c-0.025,0.59-0.783,1.139-0.783,1.139c-0.606,1.289-0.053,1.403,0.073,1.69c0.134,0.292,0.943,0.571,1.363,0.596
			c0.411,0.022,0.738,0.218,0.897,0.078c0.157-0.139,1.276-0.253,1.276-0.253c0.631-0.12,1.333-0.236,2.097-0.351
			c0.765-0.113,0.836,0.046,1.413,0.065c0.574,0.021,0.603-0.078,0.957-0.122c0.351-0.038,0.584,0.155,1.349,0.004
			c0.76-0.146,0.544,0.255,1.249,0.204c0.697-0.052,1.153,0.234,1.727,0.083c0.572-0.139,0.901,0.143,1.22,0.041
			c0.316-0.104,0.99-0.181,1.405-0.033c0.424,0.16,0.48,0.16,1.086,0.041c0.607-0.11,0.731-0.413,0.723-0.639
			c-0.006-0.231,0.275-0.663,0.265-1.148C103.125,72.711,102.489,72.784,102.259,72.57 M108.688,63.529
			c0.195-0.037,0.288,0.067,0.389,0.199c0.096,0.126,0.411,0.296,0.54,0.421c0.12,0.13,0.546,0.225,0.612,0
			c0.057-0.234,0.374-0.657,0.667-0.721c0.291-0.07,0.454-0.427,0.707-0.684c0.25-0.268,0.224-0.626,0.733-0.725
			c0.506-0.096,0.44-0.255,0.574-0.426c0.131-0.165,0.512-0.525,0.641-0.718c0.13-0.2,0.349-0.554,0.414-0.684
			c0.067-0.139,0-0.3,0.422-0.629c0.411-0.325,1.119-0.261,1.372-0.132c0.252,0.132,1.346,0.923,1.499,1.02
			c0.157,0.097,0.86,0.163,1.096,0.359c0.221,0.192,0.67,0.226,0.89,0.259c0.23,0.036,0.548,0.163,0.808,0.427
			c0.254,0.269,0.538,0.064,0.76,0.361c0.23,0.292,0.805,0.194,1.155,0.461c0.35,0.263,1.025,0.919,1.697,0.887
			c0.663-0.037,1.178-1.154,1.149-1.671c-0.033-0.53-0.641-0.723-0.831-0.919c-0.198-0.2-0.705-0.163-1.059-0.46
			c-0.35-0.297-0.861-0.522-0.993-0.684c-0.12-0.168-0.798-0.459-0.99-0.329c-0.189,0.132-0.575-0.164-0.765-0.295
			c-0.194-0.13-0.833-0.198-1.313-0.466c-0.485-0.251-0.61-0.223-1.606-0.188c-0.982,0.032-1.047-0.562-1.367-0.755
			c-0.326-0.196,0.154-0.327-0.642-0.882c-0.804-0.564-1.765-0.065-1.765,0.356c0,0.426-0.667,1.41-0.667,1.41
			c-0.131,0.2-1.12,0.75-1.213,0.917c-0.101,0.162-0.519,0.591-0.676,0.72c-0.158,0.129-0.547,0.752-0.699,0.887
			c-0.162,0.131-0.513,0.192-0.683,0.428c-0.152,0.223-0.726,0.846-0.95,1.078c-0.223,0.229-0.353,0.454-0.325,0.683
			C108.308,63.265,108.502,63.558,108.688,63.529 M124.296,64.957c-0.221-0.068-0.442,0.03-0.925,0.03
			c-0.472,0-1.373-0.164-1.951,0.034c-0.571,0.197-1.794,0.197-2.397,0.036c-0.611-0.168-1.117-0.234-1.215-0.457
			c-0.097-0.231-0.291-0.789-0.356-1.022c-0.062-0.234,0.197-0.495-0.418-0.916c-0.607-0.422-0.053-0.821-0.666-0.821
			c-0.609,0-0.453-0.488-0.993-0.095c-0.545,0.388-0.74,0.72-0.796,0.916c0,0-0.451,0.297,0.187,0.947
			c0.641,0.659-0.282,0.924-0.323,1.117c-0.027,0.193-1.436,0.097-1.876,0.261c-0.451,0.165-1.285,0-1.865,0.1
			c-0.573,0.101-1.503,0.031-2.201,0.192c-0.702,0.168-1.51,0.299-1.698,0.727c-0.189,0.425-0.607,0.914,0.067,1.012
			c0.667,0.102,1.051,0.226,1.179,0.165c0.131-0.064,0.989-0.098,1.25-0.03c0.247,0.065,0.931,0.295,1.696,0.065
			c0.766-0.234,1.275-0.2,1.665-0.17c0.382,0.037,0.988-0.167,1.241,0.135c0.174,0.203,1.25-0.064,1.474-0.135
			c0.22-0.065,0.612-0.222,1.181-0.167c0.577,0.074,1.154,0.271,1.798,0.167c0.633-0.093,1.628,0.071,2.013,0
			c0.385-0.065,0.7,0.3,0.895,0.226c0.198-0.057,0.642,0.104,0.768,0.036c0.127-0.067,0.768-0.226,0.989-0.192
			c0.226,0.033,0.995-0.071,1.379-0.071c0.383,0,1.152,0.196,1.077-0.46c-0.058-0.651-0.058-1.071-0.406-1.37
			C124.715,64.919,124.524,65.021,124.296,64.957 M124.814,72.548c0.061-0.363-0.099-1.19-0.254-1.514
			c-0.159-0.319,0.032-1.307-0.159-1.537c-0.193-0.232-0.616-0.66-0.681-0.787c-0.056-0.127-0.638-0.584-0.958-0.551
			c-0.312,0.029-0.482-0.165-1.054-0.099c-0.575,0.065-2.913,0.128-3.484,0c-0.575-0.134-0.9,0.027-1.223-0.134
			c-0.315-0.165-1.31,0-1.977-0.03c-0.67-0.035-1.823,0.097-2.404,0.097c-0.575,0-1.891-0.189-2.556-0.067
			c-0.686,0.134-2.558,0.361-2.815,0.682c0,0-0.988,0.728-0.61,1.416c0.387,0.69,0.867,0.488,1.315,0.419
			c0.45-0.057,1.376,0.198,1.694-0.057c0.315-0.266,0.418-0.266,0.9-0.233c0.469,0.033,1.568-0.065,1.884-0.033
			c0.316,0.033,1.313-0.263,1.665-0.165c0.346,0.097,0.731,0.232,1.466,0.097c0.736-0.13,1.058,0.135,1.567,0.232
			c0.516,0.102,1.663,0.035,1.854-0.035c0.192-0.062,0.583,0.167,1.246,0.229c0.678,0.068,1.347,0.198,1.453,0.418
			c0.095,0.242,0.441,0.37,0.538,1.157c0.094,0.787-0.131,0.65,0.057,1.046c0.197,0.393-0.124,0.524-0.029,0.947
			c0.1,0.429-0.386,1.309,0.323,1.309c0.703,0,1.441,0.102,1.662-0.353c0.228-0.456,0.864-0.432,0.638-0.916
			C124.648,73.597,124.754,72.902,124.814,72.548 M129.252,60.3c1.092-0.129,1.249-0.295,1.384-0.229
			c0.123,0.07,0.725-0.43,1.086-0.327c0.348,0.104,0.956-0.166,1.21-0.035c0.252,0.139,0.647,0.233,0.765,0.139
			c0.137-0.104,1.189,0.192,0.518,0.686c-0.673,0.49-1.474,1.24-1.828,1.665c-0.348,0.425-0.76,0.75-0.959,1.019
			c-0.188,0.266-0.927,0.393-0.958,0.753c-0.03,0.358-0.155,0.549,0.644,0.778c0.803,0.235,0.731,0.398,0.99,0.53
			c0.255,0.131,0.413,0.034,0.574-0.393c0.158-0.423,0.353-0.394,0.668-0.488c0.321-0.1,0.706-0.787,0.903-0.95
			c0.186-0.165,0.597-0.3,0.731-0.396c0.13-0.102,0.519-0.625,0.808-0.653c0.604-0.067,0.326-0.168,0.571-0.558
			c0.154-0.266,0.931-0.588,1.12-0.657c0.187-0.065,0.448,0.392,0.604,0.527c0.163,0.131,0.859,0.393,1.091,0.521
			c0.222,0.133,1.314,0.718,1.625,0.853c0.331,0.134,0.678,0.328,0.866,0.527c0.192,0.198,0.516,0.27,0.834,0.522
			c0.32,0.264,0.575,0.422,0.734,0.589c0.168,0.162,0.583,0.424,0.644,0.325c0.062-0.093,0.644,0.292,0.644,0.2
			c0-0.101,0.827-0.823,0.827-1.147c0-0.332,0.164-0.689-0.571-1.082c-0.743-0.395-0.772-0.62-1.162-1.043
			c-0.382-0.427-0.768-0.596-0.823-0.76c-0.07-0.158-0.424,0.067-0.611-0.097c-0.191-0.161-0.611-0.618-0.831-0.648
			c-0.22-0.036-0.93-0.43-0.26-0.494c0.67-0.069,0.993,0.064,0.993,0.064s0.445-0.16,0.612-0.064
			c0.152,0.095,0.734,0.064,0.893-0.069c0.164-0.128,0.673-0.266,1.089-0.266c0.417,0,1.02-0.026,1.28-0.026
			c0.255,0,0.898-0.037,0.827-0.459c-0.055-0.427-0.222-0.88-0.475-1.278c-0.263-0.393-0.386-0.393-1.153-0.258
			c-0.769,0.125-1.124-0.038-1.856,0.063c-0.731,0.094-1.218,0.131-1.661,0.094c-0.451-0.032-2.368,0.265-2.722-0.195
			c-0.357-0.459-0.582-0.691-0.864-0.783c-0.283-0.094-0.451-0.226-0.645-0.392c-0.189-0.169-1.016-0.134-1.209,0
			c-0.197,0.131-0.898,0.298-0.577,0.911c0,0,0.736,0.53-0.189,0.764c-0.928,0.219-0.609,0.021-0.801-0.041
			c-0.196-0.065-2.693,0-3.331,0.099c-0.642,0.099-2.46,0.528-2.693,1.178C128.387,59.976,128.165,60.435,129.252,60.3
			 M146.748,66.662c-0.409-0.292-2.398-0.195-2.717-0.101c-0.318,0.101-0.959,0.299-1.625,0.101c-0.679-0.195-1,0-1.609-0.032
			c-0.604-0.027-1.432-0.163-1.787-0.358c-0.346-0.198-0.225-0.948-0.225-0.948s-0.131-1.389-0.509-1.509
			c-1.667-0.52-2.148,0.168-2.148,0.168c-0.342,0.617-0.128,0.781-0.128,1.011c0,0.231-0.098,0.064,0.069,0.881
			c0.161,0.823-0.544,0.592-0.831,0.592c-0.294,0-0.964,0.231-1.379,0.195c-0.412-0.032-1.183-0.195-1.792-0.032
			c-0.606,0.165-1.113,0.364-1.696,0.332c-0.58-0.037-1.213,0-2.111,0.617c-0.894,0.624-0.443,1.41-0.255,1.344
			c0.189-0.062,1.477,0.066,1.924,0.036c0.443-0.036,0.89-0.036,1.75-0.165c0.867-0.131,4.166,0.095,4.711-0.064
			c0.541-0.164,3.158,0.159,3.834,0.131c0.676-0.036,2.757-0.099,3.488-0.067c0.741,0.032,0.131-0.091,1.6,0.165
			c1.469,0.262,1.731-0.098,1.988-0.362c0.253-0.258,0.352-1.242,0.352-1.373C147.654,67.096,147.165,66.962,146.748,66.662
			 M146.593,73.432c0.037-0.419-0.349-0.586-0.862-0.655c-0.51-0.066-0.832-0.039-1.381-0.165c-0.537-0.13-1.019,0.099-1.344,0.033
			c-0.313-0.065-0.379,0.166-0.858,0.166c-0.485,0-0.899,0.136-1.696-0.035c-0.797-0.165-2.725-0.039-3.262-0.131
			c-0.546-0.097-1.505,0.04-1.95-0.033c-0.448-0.063-1.218,0.356-1.506,0.262c-0.284-0.097-0.221-0.325-1.185-0.189
			c-0.961,0.126-0.703-1.025-0.703-1.025c0-0.192,0.113-1.257-0.382-1.629c-1.251-0.957-2.212-0.103-2.212-0.103
			c-0.541,0.686-0.604,1.509-0.479,1.802c0.134,0.295,0.541,0.425,0.255,0.818c-0.28,0.398-0.765,0.358-0.538,1.704
			c0.221,1.338,2.077,1.075,2.495,1.046c0.414-0.03,1.725-0.329,2.361-0.227c0.648,0.099,1.031-0.201,1.344-0.17
			c0.327,0.035,0.29-0.031,0.678,0.035c0.38,0.065,1.63,0.234,2.082,0.065c0.443-0.165,0.633-0.031,0.958,0.099
			c0.321,0.131,0.509-0.099,0.832-0.029c0.311,0.061,0.709,0.13,1.054,0.029c0.349-0.099,0.669-0.029,1.218,0.07
			c0.542,0.099,1.056,0.128,1.278,0.062c0.216-0.062,1.212-0.03,1.442,0.037c0.223,0.058,0.956,0,1.878-0.037
			c0.935-0.03,0.999-0.817,0.871-0.922C146.854,74.22,146.561,73.86,146.593,73.432 M85.602,60.04
			c-0.507-0.529-0.251-0.682,0.098-1.339c0.488-0.911,1.507-0.597,1.507-0.597c0.285,0,0.638,0.102,1.052-0.094
			c0.417-0.196,0.96-0.326,1.572-0.196c0.609,0.127,0.378,0.229,0.957-0.068c0.577-0.29,0.542,0.068,1.087,0
			c0.542-0.062,1.317-0.033,1.599-0.094c0.289-0.069,0.773-0.069,0.997,0.289c0.222,0.361,0.734,1.315,0.734,1.873
			c0,0.553,0.256,1.109,0.159,1.566c-0.095,0.461-0.258,0.936-0.031,1.672c0.324,1.049-0.19,0.626-0.639,1.012
			c-0.447,0.399-0.095,1.021-0.195,1.477c-0.096,0.459-1.025,0.361-1.571,0.295c-0.536-0.066-1.346,0.361-1.503,0.361h-0.929
			c-0.287,0-0.889-0.035-1.311-0.035c-0.41,0-0.76,0.065-1.086,0.201c-0.318,0.123-0.699-0.037-1.532-0.166
			c-0.827-0.128-0.679-1.241-0.635-1.675c0.028-0.419,0.378-0.815,0.245-0.945c-0.126-0.128-0.316-0.821-0.289-1.177
			c0.044-0.361,0.232-0.951,0.264-1.442C86.177,60.47,85.602,60.04,85.602,60.04 M88.612,62.07c0.098,0.262,0.227,0.427,0.319,0.95
			c0.099,0.525,0.703,0.557,1.023,0.592c0.324,0.029,0.036,0.27,1.249,0.228c1.215-0.03,0.993-0.134,1.246-0.356
			c0.256-0.234,0.256-0.756,0.256-0.987c0-0.229,0.028-0.583,0.386-0.787c0.352-0.2,0.478-0.29,0.382-0.495
			c-0.093-0.192-0.479-0.393-0.479-0.393c-0.125-0.42-0.671-0.551-0.864-0.456c-0.186,0.104-0.605-0.295-1.053-0.26
			c-0.455,0.035-1.277-0.199-1.86-0.164c-0.566,0.034-0.669,0.26-0.699,0.592C88.488,60.858,88.519,61.806,88.612,62.07
			 M44.561,59.485c-0.476,0.038-1.099,0.096-1.539,0.096c-0.415,0-0.926,0.102-0.539-0.723c0.383-0.815,0.705-0.448,1.377-0.617
			c0,0,1.405-0.035,1.882-0.26c0.483-0.235,0.42-0.235,0.362-0.855c0,0,0.535-1.145,1.684-0.714c1.16,0.422,0.39,1.271,1.702,1.334
			c1.308,0.065,1.792,0.431,2.395,0.166c0.617-0.26,1.512-0.292,1.858,0.194c0.35,0.499,0.319,1.347-0.476,1.313
			c-0.803-0.027-1.346,0.034-1.696,0.127c-0.351,0.104-0.74,0.036-1.029,0.205c-0.286,0.155-0.928,0.127-1.115,0.09
			c-0.194-0.026-0.868,0.338,0.028,0.659c0.9,0.331,1.476,0.456,1.827,0.821c0.349,0.361,0.573,0.127,0.768,0.583
			c0.189,0.464,0.862,1.049,0.925,2.725c0.06,1.666-0.063,1.898-0.771,2.521c-0.699,0.618-1.374,1.572-2.845,1.607
			c-1.472,0.03-1.154-0.101-2.11-0.235c-0.96-0.123-1.437-0.461-1.881-0.618c-0.457-0.169-1.922-1.307-1.832-3.051
			c0.095-1.733,0.734-2.326,1.127-2.685c0.383-0.358,1.019-1.337,1.562-1.5c0.545-0.168,1.056-0.561,0.128-0.631
			C45.422,59.967,45.045,59.453,44.561,59.485 M45.812,64.919c0.477,1.702,1.313,1.315,2.171,1.573
			c0.866,0.263,2.212-0.197,2.787-1.078c0.578-0.885,0.318-1.801-0.575-2.356c-0.9-0.561-1.44-0.232-1.797-0.303
			c-0.349-0.061-0.542-0.258-0.736-0.16c-0.191,0.099-0.35,0.03-0.447,0.129C47.215,62.725,45.327,63.218,45.812,64.919"/>
	</g>
	<g>
		<path style="fill:#EA7E26;" d="M78.936,39.541c1.01-0.101,1.71-0.641,1.839-1.426c0.298-1.832-0.917-3.883-2.412-5.413
			c-2.65-0.444-5.672-0.495-9.018,0.17v2.97c2.922,2.296,6.197,3.223,7.456,3.515C77.939,39.616,78.547,39.582,78.936,39.541z
			 M78.177,36.407c0.663,0,1.202,0.537,1.202,1.204c0,0.664-0.539,1.201-1.202,1.201c-0.664,0-1.201-0.537-1.201-1.201
			C76.976,36.944,77.513,36.407,78.177,36.407z"/>
		<path style="fill:#EA7E26;" d="M81.177,33.347c0.783,1.311,1.386,2.804,1.195,4.65c-0.126,1.219-0.887,2.602-3.88,2.868
			c-1.922,0.174-4.887-0.417-9.147-2.145v7.041c-2.086,0.462-5.358,1.994-7.497,3.262l0,0c-0.061,0.044-0.102,0.117-0.102,0.195
			c0,0.135,0.107,0.239,0.238,0.239c0.017,0,0.033-0.004,0.05-0.006l0,0c2.862-0.612,6.243-1.179,9.645-1.649
			c1.223-1.874,3.727-5.295,6.099-5.972c2.423-0.692,5.125,1.018,3.744,4.884c1.141-0.086,2.211-0.156,3.178-0.195V34.695
			C83.651,34.197,82.47,33.729,81.177,33.347z"/>
		<path style="fill:#EA7E26;" d="M79.255,43.454c-0.886-0.275-2.049,0.188-2.946,1.061c-0.805,0.785-1.852,2.067-2.451,2.997
			c2.007-0.254,3.981-0.47,5.822-0.639C80.223,45.38,80.39,43.81,79.255,43.454z"/>
		<g>
			<path style="fill:#DA9B20;" d="M95.69,34.911c0,1.361-0.002,2.984,0,4.253l2.553,0.875l-2.553,0.875v5.29
				c2.398,0.021,4.923,0.073,7.452,0.2V31.921C99.95,32.278,97.63,33.438,95.69,34.911z M86.858,31.921v14.483
				c2.532-0.127,5.056-0.179,7.455-0.2v-5.29l-2.556-0.875l2.556-0.875c0.002-1.269,0-2.892,0-4.253
				C92.375,33.438,90.053,32.278,86.858,31.921z"/>
			<path style="fill:#756340;" d="M133.405,30.546c0-0.214-0.155-0.39-0.357-0.429c-5.096-1.105-11.107-4.425-14.933-10.216
				c-8.722,2.093-17.162,2.673-23.114,2.615c-5.949,0.059-14.391-0.522-23.112-2.615c-3.826,5.791-9.838,9.111-14.935,10.219h0.001
				c-0.203,0.038-0.355,0.213-0.355,0.428c0,0.147,0.075,0.28,0.189,0.357c1.743,1.293,2.779,2.507,4.186,3.636
				c2.504,2.01,5.363,1.116,6.559-0.173c-3.58,0.144-5.878-1.569-6.785-2.821c3.661-1.352,9.52-4.905,12.265-9.392
				c6.34,1.577,16.304,2.177,21.987,2.138c5.685,0.038,15.649-0.561,21.992-2.138c2.743,4.487,8.603,8.041,12.26,9.392
				c-0.904,1.252-3.204,2.965-6.781,2.821c1.194,1.289,4.052,2.183,6.556,0.173c1.409-1.134,2.448-2.345,4.193-3.639
				c0.005-0.007,0.011-0.008,0.017-0.014l0,0l0.001-0.001C133.339,30.808,133.405,30.684,133.405,30.546z"/>
		</g>
		<path style="fill:#9F9522;" d="M128.176,49.037L128.176,49.037c-2.138-1.269-5.423-2.813-7.518-3.275v-3.575
			c-2.428,0.337-5.086,2.802-8.511,2.61c-1.892-0.102-4.472-0.987-4.629-4.585c-0.088-2.725,1.702-4.584,4.496-4.712
			c1.189-0.057,2.662,0.539,3.147,1.431c0.851,1.565,0.162,2.757-0.049,2.888c1.817-1.125,3.822-1.067,4.755-0.785
			c-1.944,0.529-3.766,1.48-4.544,1.878c-0.993,0.504-2.614,1.202-3.703,0.587c-0.909-0.516-1.199-1.751-0.789-2.431
			c0.422-0.705,1.561-0.668,1.66,0.091c0.079,0.587-0.144,0.905,0.098,1.176c0.263,0.295,1.454-0.095,1.652-1.213
			c0.198-1.118-0.637-2.227-2.287-2.167c-2.573,0.1-3.115,2.485-2.579,4.063c0.601,1.772,2.078,2.276,3.518,2.291
			c2.072,0.021,5.561-2.447,7.763-2.696v-7.74c-6.434-1.276-11.671,0.075-15.354,1.823V46.52c5.96,0.254,15.828,1.468,22.692,2.94
			l0,0c0.017,0.005,0.035,0.005,0.052,0.005c0.13,0,0.235-0.104,0.235-0.233C128.284,49.15,128.24,49.077,128.176,49.037z"/>
	</g>
</g>
</svg>
