<svg xmlns="http://www.w3.org/2000/svg" xml:space="preserve" width="421.70001" height="111.2" viewBox="0 0 421.7 111.20001"><g clip-path="url(#clipPath26)" transform="matrix(4.1335 0 0 -4.1335 -632.476 338.358)"><path d="M0 0c.238 0 .45.061.634.18.194.131.338.324.424.574l.633 1.816a.642.642 0 0 1-.206.715c-.402.322-.932.486-1.578.486-.727 0-1.426-.216-2.077-.646a5.45 5.45 0 0 1-.499-.367 1.039 1.039 0 0 1-.238.474c-.211.237-.531.352-.977.352h-1.425a.645.645 0 0 1-.634-.531L-7.724-7.016a.651.651 0 0 1 .643-.755h2.436c.313 0 .582.226.635.533L-2.939-1.1c.274.409.569.721.877.932.302.205.632.305 1.006.305.289 0 .432-.028.49-.045A2.09 2.09 0 0 1 0 0" style="fill:#d61d3d;fill-opacity:1;fill-rule:nonzero;stroke:none" transform="translate(195.313 62.882)"/><path d="M0 0a1.78 1.78 0 0 1-.625.477c-.492.228-1.101.226-1.639.013a2.62 2.62 0 0 1-.691-.41 2.378 2.378 0 0 1-.817-1.404 2.005 2.005 0 0 1 .018-.826 1.712 1.712 0 0 1 .99-1.18 1.98 1.98 0 0 1 .81-.164 2.389 2.389 0 0 1 1.51.564c.201.17.376.375.517.608.15.244.25.51.3.791.051.285.042.564-.024.828A1.775 1.775 0 0 1 0 0" style="fill:#d61d3d;fill-opacity:1;fill-rule:nonzero;stroke:none" transform="translate(198.255 58.517)"/><path d="M0 0a3.546 3.546 0 0 1-.913 1.744c-.451.473-1.061.842-1.811 1.098-.718.244-1.596.367-2.612.367h-4.957a.646.646 0 0 1-.635-.533l-2.495-14.188a.645.645 0 0 1 .635-.756h2.634c.312 0 .58.225.633.534l.792 4.461h1.773c.984 0 1.882.125 2.668.373.796.25 1.499.609 2.088 1.068A5.665 5.665 0 0 1-.747-4.168c.366.633.62 1.34.753 2.098C.137-1.33.135-.635 0 0m-7.467-.121h1.774c.41 0 .756-.045 1.027-.137.234-.08.414-.187.536-.32a.979.979 0 0 0 .236-.481c.047-.224.043-.49-.008-.787a2.965 2.965 0 0 0-.301-.89 2.046 2.046 0 0 0-.517-.631 2.225 2.225 0 0 0-.771-.404 3.605 3.605 0 0 0-1.102-.153h-1.545z" style="fill:#d61d3d;fill-opacity:1;fill-rule:nonzero;stroke:none" transform="translate(214.56 67.378)"/><path d="M0 0a1.83 1.83 0 0 1 .632-.488c.251-.119.529-.18.827-.18.291 0 .578.055.852.164A2.686 2.686 0 0 1 3.567.537c.16.25.266.52.317.807.053.302.042.595-.032.867a1.893 1.893 0 0 1-.373.721 1.844 1.844 0 0 1-.64.482c-.49.229-1.118.24-1.678.012A2.581 2.581 0 0 1-.082 2.363a2.33 2.33 0 0 1-.307-.812A1.93 1.93 0 0 1-.358.703C-.287.439-.166.201 0 0" style="fill:#d61d3d;fill-opacity:1;fill-rule:nonzero;stroke:none" transform="translate(216.731 67.983)"/><path d="M0 0a.643.643 0 0 1-.493.23h-2.412a.641.641 0 0 1-.634-.531l-1.785-10.066a.654.654 0 0 1 .14-.528.647.647 0 0 1 .496-.23h2.419c.314 0 .582.225.635.533L.142-.525A.64.64 0 0 1 0 0" style="fill:#d61d3d;fill-opacity:1;fill-rule:nonzero;stroke:none" transform="translate(219.53 66.235)"/><path d="M0 0a2.2 2.2 0 0 1 .253.701l.177 1a.645.645 0 0 1-.635.756h-7.634a.646.646 0 0 1-.635-.531l-.012-.076a.338.338 0 0 1-.009-.041L-8.802.07a.643.643 0 0 1 .635-.756h3.384l-4.925-5.271a2.434 2.434 0 0 1-.436-.592 2.041 2.041 0 0 1-.211-.582l-.178-1.012a.645.645 0 0 1 .635-.755h8.045c.314 0 .581.224.634.533l.33 1.863a.64.64 0 0 1-.141.527.64.64 0 0 1-.494.231h-3.743L-.386-.531c.14.148.269.326.386.531" style="fill:#d61d3d;fill-opacity:1;fill-rule:nonzero;stroke:none" transform="translate(229.762 64.009)"/><path d="M0 0a.64.64 0 0 1-.142.525.639.639 0 0 1-.493.231h-7.634a.645.645 0 0 1-.634-.531l-.013-.077a.271.271 0 0 1-.009-.041l-.306-1.738a.636.636 0 0 1 .141-.525.64.64 0 0 1 .493-.231h3.383l-4.924-5.271a2.487 2.487 0 0 1-.436-.592 2.067 2.067 0 0 1-.21-.582l-.179-1.01a.644.644 0 0 1 .635-.758h8.046c.312 0 .58.225.635.534l.328 1.863a.643.643 0 0 1-.634.758h-3.743l4.882 5.213c.139.148.268.326.383.531.126.224.211.459.254.701z" style="fill:#d61d3d;fill-opacity:1;fill-rule:nonzero;stroke:none" transform="translate(240.443 65.71)"/><path d="M0 0a3.282 3.282 0 0 1-1.28 1.004c-.509.228-1.111.346-1.788.346-1.777 0-3.414-.582-4.869-1.729a.645.645 0 0 1-.202-.742l.307-.777c.09-.225.229-.418.417-.573.217-.179.497-.275.811-.275.297 0 .585.07.856.207.186.096.386.201.602.316.178.096.391.184.632.266.211.068.482.103.804.103.478 0 .589-.16.625-.212.058-.08.176-.344.056-1.028l-.012-.068c-.966-.027-1.817-.129-2.538-.307-.862-.211-1.587-.482-2.154-.81-.595-.344-1.058-.742-1.375-1.188a3.394 3.394 0 0 1-.609-1.39c-.096-.539-.091-1.03.015-1.456.11-.451.315-.835.61-1.148a2.68 2.68 0 0 1 1.098-.684c.404-.134.86-.205 1.353-.205.399 0 .776.034 1.12.1.345.066.684.168 1.006.303.315.133.628.295.932.486.014.008.027.018.041.025a1.04 1.04 0 0 1 .461-.566c.22-.129.496-.191.844-.191h1.074c.313 0 .58.224.635.531L.608-3.303a5.26 5.26 0 0 1 .028 1.791A3.462 3.462 0 0 1 0 0m-5.023-7.338a2.74 2.74 0 0 0-.569-.055c-.244 0-.424.043-.519.123 0 0-.04.077.002.317a.644.644 0 0 0 .148.303c.062.072.191.185.464.306.265.117.62.217 1.058.297.263.047.567.08.907.102l-.119-.676a4.584 4.584 0 0 0-.373-.277 3.175 3.175 0 0 0-.501-.28 2.514 2.514 0 0 0-.498-.16" style="fill:#d61d3d;fill-opacity:1;fill-rule:nonzero;stroke:none" transform="translate(249.894 65.323)"/><path d="M0 0c.307.076.501.352.501.705 0 .496-.34.799-.879.799h-.8V-1.174h.468V-.09h.265l.574-1.07.02-.014h.533l-.021.049zm-.45.342h-.26v.726h.246c.321 0 .489-.05.489-.339C.025.441-.093.342-.45.342" style="fill:#d61d3d;fill-opacity:1;fill-rule:nonzero;stroke:none" transform="translate(253.442 66.872)"/><path d="M0 0a1.955 1.955 0 0 1-1.939-1.951c0-1.069.882-1.942 1.939-1.942 1.078 0 1.957.873 1.957 1.942A1.957 1.957 0 0 1 0 0m0-3.682c-.958 0-1.731.778-1.731 1.731C-1.731-.99-.958-.203 0-.203a1.75 1.75 0 0 0 1.745-1.748A1.74 1.74 0 0 0 0-3.682" style="fill:#d61d3d;fill-opacity:1;fill-rule:nonzero;stroke:none" transform="translate(253.09 68.962)"/><path d="M0 0a.648.648 0 0 1-.495.23h-2.011c-.127 0-.238-.003-.336-.011a1.52 1.52 0 0 1-.409-.086 1.265 1.265 0 0 1-.42-.252 2.049 2.049 0 0 1-.3-.344l-5.586-7.859-.079-.114-2.827 7.817c-.06.168-.139.312-.235.428a1.065 1.065 0 0 1-.423.316 1.378 1.378 0 0 1-.417.094 4.549 4.549 0 0 1-.351.011h-1.982a.645.645 0 0 1-.635-.531l-2.513-14.187a.647.647 0 0 1 .637-.758h2.332c.313 0 .581.225.635.533l1.381 7.863 2.053-5.673c.11-.307.29-.551.534-.729a1.49 1.49 0 0 1 .903-.277h.362c.325 0 .627.08.901.24.254.146.475.351.66.611l3.969 5.596-1.309-7.408a.648.648 0 0 1 .639-.756h2.334c.312 0 .58.225.634.533L.143-.525A.645.645 0 0 1 0 0" style="fill:#d61d3d;fill-opacity:1;fill-rule:nonzero;stroke:none" transform="translate(188.093 70.356)"/><path d="M0 0a.593.593 0 0 0 .801-.215A.575.575 0 0 0 .586-1c-2.171-1.18-4.054-1.047-5.657-.891-.341.034-.67.077-.986.118-1.575.205-9.093 1.464-9.11 1.468-6.482 1.065-8.33.811-9.789.428C-27.788-.619-29.263-1.936-30-2.91c-.909-1.201-1.228-2.594-.874-3.822.36-1.247 1.406-2.313 2.87-2.926 1.206-.504 3.264-.942 6.226-.166 2.091.549 4.109 1.832 6.229 2.816 1.875.871 2.811 1.297 4.938 1.879-1.952.33-4.668.766-6.063.91-1.48.157-5.222.653-7.148-1.049a.577.577 0 0 0-.814.016.582.582 0 0 0 .007.818c2.032 1.793 5.493 1.756 8.117 1.348 1.741-.273 9.792-1.572 9.809-1.574 5.361-.881 6.779-.498 8.031-.16l.251.066c2.026.531 3.628 1.41 4.634 2.547.894 1.01 1.224 2.139.924 3.176-.314 1.09-1.23 2.023-2.512 2.558-1.06.444-2.869.828-5.475.145-1.953-.51-7.228-3.367-8.879-3.811 1.102-.177 3.004-.396 3.834-.504C-4.151-.869-2.202-1.197 0 0" style="fill:#fdb713;fill-opacity:1;fill-rule:nonzero;stroke:none" transform="translate(184.027 77.814)"/></g></svg>