<svg xmlns="http://www.w3.org/2000/svg" xml:space="preserve" width="152.65199" height="152.664" viewBox="0 0 152.65199 152.664"><defs><clipPath id="a" clipPathUnits="userSpaceOnUse"><path d="M0 737.01h510.24V0H0Z"/></clipPath></defs><g clip-path="url(#a)" transform="matrix(1.33333 0 0 -1.33333 -263.15 586.17)"><path d="M0 0c-9.708 9.715-15.698 23.095-15.698 37.909 0 14.808 5.99 28.188 15.698 37.893C9.71 85.502 23.097 91.5 37.895 91.5c14.793 0 28.185-5.998 37.891-15.698 9.695-9.705 15.69-23.085 15.69-37.893 0-14.814-5.995-28.194-15.69-37.909-9.706-9.692-23.098-15.691-37.891-15.691C23.097-15.691 9.71-9.692 0 0m37.895 95.146c-31.615 0-57.249-25.632-57.249-57.237 0-31.639 25.634-57.261 57.249-57.261 31.612 0 57.24 25.622 57.24 57.261 0 31.605-25.628 57.237-57.24 57.237" style="fill:#fff;fill-opacity:1;fill-rule:nonzero;stroke:none" transform="translate(216.716 344.481)"/><path d="M0 0c-9.708 9.715-15.698 23.095-15.698 37.909 0 14.808 5.99 28.188 15.698 37.893C9.71 85.502 23.097 91.5 37.895 91.5c14.793 0 28.185-5.998 37.891-15.698 9.695-9.705 15.69-23.085 15.69-37.893 0-14.814-5.995-28.194-15.69-37.909-9.706-9.692-23.098-15.691-37.891-15.691C23.097-15.691 9.71-9.692 0 0" style="fill:#5a191d;fill-opacity:1;fill-rule:nonzero;stroke:none" transform="translate(216.716 344.481)"/><path d="M0 0c-14.854.041-26.864 12.058-26.888 26.909C-26.864 41.729-14.854 53.76 0 53.76c14.843 0 26.857-12.031 26.885-26.851C26.857 12.058 14.843.041 0 0m0 57.402c-16.845 0-30.505-13.651-30.505-30.493 0-16.872 13.66-30.524 30.505-30.524 16.859 0 30.501 13.652 30.501 30.524 0 16.842-13.642 30.493-30.501 30.493" style="fill:#fff;fill-opacity:1;fill-rule:nonzero;stroke:none" transform="translate(254.61 355.481)"/><path d="M0 0c-14.854.041-26.864 12.058-26.888 26.909C-26.864 41.729-14.854 53.76 0 53.76c14.843 0 26.857-12.031 26.885-26.851C26.857 12.058 14.843.041 0 0" style="fill:#003d29;fill-opacity:1;fill-rule:nonzero;stroke:none" transform="translate(254.61 355.481)"/><path d="m0 0 12.466-17.787L26.08-8.253 13.626 9.548l9.059 6.341-9.045 12.917-31.746-22.233 9.043-12.906Z" style="fill:#fff;fill-opacity:1;fill-rule:nonzero;stroke:none" transform="translate(248.29 376.718)"/><path d="m0 0 .436 5.064-3.414.283-1.186-14.171 3.408-.279.421 5.061 11.624-.978.34 4.041z" style="fill:#fff;fill-opacity:1;fill-rule:nonzero;stroke:none" transform="translate(208.939 388.323)"/><path d="M0 0c-.785-1.764-2.63-2.625-5.513-1.336C-8.405-.04-8.982 1.908-8.201 3.665c.798 1.765 2.638 2.632 5.529 1.341C.213 3.712.79 1.759 0 0m-11.316 5.065c-1.699-3.798-.422-8.045 4.154-10.086 4.57-2.044 8.587-.169 10.282 3.625 1.708 3.795.416 8.042-4.146 10.086-4.571 2.05-8.59.17-10.29-3.625" style="fill:#fff;fill-opacity:1;fill-rule:nonzero;stroke:none" transform="translate(220.245 397.744)"/><path d="m0 0 2.28-7.471-7.092 3.27-3.459-3.03 9.923-11.358 2.857 2.496-5.171 5.902.31.265 5.222-2.217 1.704 1.494-1.502 5.464.304.269 5.169-5.901 2.85 2.482-9.93 11.363z" style="fill:#fff;fill-opacity:1;fill-rule:nonzero;stroke:none" transform="translate(224.575 421.495)"/><path d="m0 0-.886-3.309 4.911-1.306-2.982-11.279 3.912-1.029L7.952-5.654l4.919-1.307.871 3.315z" style="fill:#fff;fill-opacity:1;fill-rule:nonzero;stroke:none" transform="translate(260.32 431.955)"/><path d="M0 0c-1.599 1.08-2.134 3.048-.356 5.658C1.411 8.274 3.435 8.52 5.036 7.441c1.594-1.082 2.129-3.05.358-5.676C3.616-.848 1.602-1.089 0 0m6.945 10.269c-3.45 2.334-7.86 1.804-10.658-2.343-2.805-4.145-1.648-8.43 1.798-10.762C1.534-5.164 5.935-4.642 8.739-.491c2.799 4.147 1.658 8.43-1.794 10.76" style="fill:#fff;fill-opacity:1;fill-rule:nonzero;stroke:none" transform="translate(275.602 413.48)"/><path d="m0 0-7.748-.946 4.453 6.42-2.373 3.932-12.92-7.8 1.953-3.236 6.72 4.058.202-.352-3.09-4.76 1.163-1.929 5.648.52.208-.339-6.71-4.059 1.956-3.244L2.378-3.94z" style="fill:#fff;fill-opacity:1;fill-rule:nonzero;stroke:none" transform="translate(298.326 405.17)"/><path d="m0 0 1.736-9.112-7.058 8.098v.008l-4.229-.811 2.822-14.811 3.711.713-1.751 9.152L2.33-14.89l4.203.803L3.709.711z" style="fill:#fff;fill-opacity:1;fill-rule:nonzero;stroke:none" transform="translate(248.233 431.386)"/><path d="M0 0c.512 1.589.578 4.494.223 6.532-.735 4.303-3.122 6.106-5.734 5.659-2.584-.44-3.177-2.925-3.476-5.432-.305-2.557-.275-5.09-1.378-5.278-.845-.141-1.472.845-1.818 2.822-.403 2.345-.169 4.574.628 5.851l-.188 1.146-3.528-.595c-.489-1.505-.834-4.24-.316-7.25.748-4.365 3.101-6.497 5.926-6.011 2.921.491 3.528 3.198 3.816 5.777.268 2.451.257 4.788 1.165 4.946.671.107 1.219-.823 1.496-2.42.279-1.595.285-4.062-.534-5.215l.196-1.124z" style="fill:#fff;fill-opacity:1;fill-rule:nonzero;stroke:none" transform="translate(304.17 381.611)"/><path d="M0 0c-2.733 4.295-7.195 5.364-11.246 2.793l-.022-.01c-3.307-2.095-5.148-6.819-2.171-11.524a11.022 11.022 0 0 1 4.057-3.771l3.127 1.993-.698 1.093c-1.535.508-2.445.779-3.556 2.539-1.152 1.817-.827 4.761 1.469 6.209C-6.62.855-4.165.055-2.941-1.861v.012c1.329-2.112.842-3.708.42-4.76l.689-1.101 3.048 1.921C1.731-3.615.757-1.188 0 0" style="fill:#fff;fill-opacity:1;fill-rule:nonzero;stroke:none" transform="translate(226.161 363.664)"/><path d="M0 0c-1.604 1.108-2.163 3.074-.295 5.739 1.863 2.674 3.894 2.82 5.492 1.706 1.596-1.121 2.168-3.075.3-5.746C3.641-.968 1.596-1.127 0 0m7.183 10.286C3.735 12.689-.75 12.233-3.651 8.079-6.556 3.933-5.433-.431-1.982-2.844 1.479-5.258 5.96-4.799 8.85-.642c2.902 4.154 1.795 8.504-1.667 10.928" style="fill:#fff;fill-opacity:1;fill-rule:nonzero;stroke:none" transform="translate(227.928 344.213)"/><path d="m0 0 .762 3.376-10.834 2.452-3.37-14.864 3.993-.91 1.333 5.881 6.281-1.424.757 3.382-6.271 1.419.5 2.237z" style="fill:#fff;fill-opacity:1;fill-rule:nonzero;stroke:none" transform="translate(252.032 344.33)"/><path d="m0 0-.647 3.398-10.914-2.063 2.849-14.988 4.021.761-1.117 5.935L.52-5.751l-.659 3.399-6.318-1.206-.428 2.251z" style="fill:#fff;fill-opacity:1;fill-rule:nonzero;stroke:none" transform="translate(266.896 346.371)"/><path d="m0 0 3.416 2.251 6.302 4.17-1.911 2.893-6.298-4.172L.167 7.185l5.818 3.846-1.916 2.887-5.823-3.849-1.331 2.024 6.208 4.099-1.912 2.887-9.63-6.36z" style="fill:#fff;fill-opacity:1;fill-rule:nonzero;stroke:none" transform="translate(277.036 337.935)"/><path d="M0 0h.006l2.263 3.423 4.168 6.299-2.888 1.904-4.171-6.303-2.029 1.341 3.85 5.833-2.89 1.921-3.854-5.835-2.019 1.341 4.107 6.21-2.887 1.908-6.372-9.627z" style="fill:#fff;fill-opacity:1;fill-rule:nonzero;stroke:none" transform="translate(292.536 350.113)"/></g></svg>