<svg xmlns="http://www.w3.org/2000/svg" width="124.497" height="124.496" viewBox="0 0 124.497 124.496">
  <g id="그룹_9" data-name="그룹 9" transform="translate(-246.739 -552)">
    <rect id="사각형_1" data-name="사각형 1" width="124.495" height="46.686" transform="translate(246.74 629.81)" fill="#d50037"/>
    <path id="패스_399" data-name="패스 399" d="M0,0H124.495V46.686H0Z" transform="translate(246.74 552)" fill="#636569"/>
    <rect id="사각형_2" data-name="사각형 2" width="62.248" height="46.686" transform="translate(308.988 552)" fill="#d50037"/>
    <path id="패스_400" data-name="패스 400" d="M0,0H62.248V46.686H0Z" transform="translate(308.988 629.81)" fill="#636569"/>
    <rect id="사각형_3" data-name="사각형 3" width="124.496" height="31.124" transform="translate(246.739 598.686)" fill="#222"/>
    <path id="패스_401" data-name="패스 401" d="M163.521,617.406c-.286-.065-.759-.162-1.139-.239l-.231-.048c-.129-.026-.249-.05-.353-.078-.749-.15-1.214-.32-1.214-.7a.583.583,0,0,1,.182-.42,1.579,1.579,0,0,1,1.119-.384h.073a4.3,4.3,0,0,1,2.722,1.022l.083.075.644-1.252-.063-.043a5.361,5.361,0,0,0-3.293-1.117,3.543,3.543,0,0,0-2.461.929,1.837,1.837,0,0,0-.556,1.377c.038,1.482,1.676,1.882,3.514,2.19.785.132,1.342.26,1.372.718a.6.6,0,0,1-.184.425,2.1,2.1,0,0,1-1.476.438h-.075a4.648,4.648,0,0,1-2.671-1.062l-.088-.079-.6,1.332.06.041a6.351,6.351,0,0,0,3.313,1.07,3.664,3.664,0,0,0,2.69-.888,1.922,1.922,0,0,0,.562-1.439c-.027-.99-.64-1.582-1.929-1.862" transform="translate(132.791 -3.492)" fill="#fff"/>
    <path id="패스_402" data-name="패스 402" d="M148.126,614.216a3.888,3.888,0,0,0-2.929,1.168,3.633,3.633,0,0,0-1.034,2.544,3.518,3.518,0,0,0,1.193,2.651,4.266,4.266,0,0,0,5.524,0,3.474,3.474,0,0,0,1.193-2.652,3.624,3.624,0,0,0-1.015-2.542,3.931,3.931,0,0,0-2.931-1.17m1.685,5.331a2.433,2.433,0,0,1-3.382,0,2.268,2.268,0,0,1-.694-1.619,2.391,2.391,0,0,1,4.781,0,2.242,2.242,0,0,1-.706,1.619" transform="translate(139.027 -3.491)" fill="#fff"/>
    <path id="패스_403" data-name="패스 403" d="M134.617,614.679l-1.51,4.647-1.5-4.647h-1.534l-1.511,4.639-1.507-4.639h-1.609l2.351,6.787.035.059h1.48l1.528-4.482,1.528,4.482h1.491l2.366-6.845Z" transform="translate(146.989 -3.688)" fill="#fff"/>
    <path id="패스_404" data-name="패스 404" d="M111.887,615.939h2.87v5.586h1.58v-5.586h2.87V614.68h-7.32Z" transform="translate(152.753 -3.688)" fill="#fff"/>
    <path id="패스_405" data-name="패스 405" d="M96.96,614.68l-3.141,6.845H95.43l.749-1.7H99.3l.767,1.7h1.624l-3.14-6.845Zm-.211,3.886,1-2.2,1,2.2Z" transform="translate(160.437 -3.689)" fill="#fff"/>
    <path id="패스_406" data-name="패스 406" d="M266.06,619.215a3.01,3.01,0,0,1-2.294,1.013h-.024a2.439,2.439,0,0,1-2.47-2.325,2.256,2.256,0,0,1,.651-1.63,2.548,2.548,0,0,1,1.8-.707,3.2,3.2,0,0,1,2.329.982l.077.075.748-1.194-.057-.048a4.725,4.725,0,0,0-3.106-1.172,4.381,4.381,0,0,0-2.665.959,3.511,3.511,0,0,0-1.333,2.768,3.806,3.806,0,0,0,3.878,3.649c.072,0,.144.006.215.006a4.5,4.5,0,0,0,3.084-1.244l.056-.051-.817-1.164Z" transform="translate(89.884 -3.488)" fill="#fff"/>
    <path id="패스_407" data-name="패스 407" d="M235.915,614.679H234.4v6.845h5.952v-1.291h-4.434Z" transform="translate(100.652 -3.688)" fill="#fff"/>
    <path id="패스_408" data-name="패스 408" d="M175.371,614.216a3.868,3.868,0,0,0-2.931,1.168,3.64,3.64,0,0,0-1.031,2.544,3.514,3.514,0,0,0,1.193,2.651,4.137,4.137,0,0,0,2.769,1.015,4.2,4.2,0,0,0,2.771-1.015,3.532,3.532,0,0,0,1.186-2.651,3.655,3.655,0,0,0-1.025-2.542,3.948,3.948,0,0,0-2.932-1.17m1.68,5.331a2.337,2.337,0,0,1-1.68.683,2.4,2.4,0,0,1-1.7-.683,2.27,2.27,0,0,1-.695-1.619,2.391,2.391,0,0,1,4.781,0,2.244,2.244,0,0,1-.7,1.619" transform="translate(127.44 -3.491)" fill="#fff"/>
    <path id="패스_409" data-name="패스 409" d="M275.632,620.241v-1.729h4.025v-1.27h-4.025V615.9h4.157v-1.267h-5.675v6.871h5.8v-1.265Z" transform="translate(83.761 -3.669)" fill="#fff"/>
    <path id="패스_410" data-name="패스 410" d="M249.252,614.68l-3.156,6.845h1.616l.75-1.7h3.113l.772,1.7h1.619l-3.143-6.845Zm-.221,3.886,1-2.2.994,2.2Z" transform="translate(95.676 -3.689)" fill="#fff"/>
    <path id="패스_411" data-name="패스 411" d="M226.868,615.068a3.668,3.668,0,0,0-1.95-.424h-3.867v6.875h1.608v-2.185H224.9a3.687,3.687,0,0,0,1.936-.429,2.409,2.409,0,0,0,.029-3.837m-1.766,2.977h-2.443v-2.1H225.1a1.265,1.265,0,0,1,.769.252.958.958,0,0,1,.353.8,1.056,1.056,0,0,1-1.122,1.051" transform="translate(106.328 -3.673)" fill="#fff"/>
    <path id="패스_412" data-name="패스 412" d="M190.793,618.212l-2.083-3.533h-1.836v6.845h1.517v-4.575l1.995,3.265h.837l1.977-3.253v4.564h1.529v-6.845h-1.843Z" transform="translate(120.863 -3.688)" fill="#fff"/>
    <path id="패스_413" data-name="패스 413" d="M204.367,618.512h4.025v-1.27h-4.025V615.9h4.142v-1.267h-5.66v6.871h5.8v-1.264h-4.277Z" transform="translate(114.069 -3.669)" fill="#fff"/>
  </g>
</svg>
